<?xml version="1.0" standalone="no"?>
<!DOCTYPE svg PUBLIC "-//W3C//DTD SVG 1.1//EN" "http://www.w3.org/Graphics/SVG/1.1/DTD/svg11.dtd" >
<svg xmlns="http://www.w3.org/2000/svg">
<metadata>
This is a custom SVG webfont generated by Font Squirrel.
Copyright   : Timo Gaessner 123Buero All rights reserved  Published by Die Gestalten Verlag 2006
</metadata>
<defs>
<font id="NaivThinRegular" horiz-adv-x="1175" >
<font-face units-per-em="2048" ascent="1597" descent="-451" />
<missing-glyph horiz-adv-x="716" />
<glyph unicode=" "  horiz-adv-x="716" />
<glyph unicode="&#x09;" horiz-adv-x="716" />
<glyph unicode="&#xa0;" horiz-adv-x="716" />
<glyph unicode="!" horiz-adv-x="567" d="M225 47v115q0 25 17.5 42t42 17t41 -17.5t16.5 -41.5v-115q0 -25 -16.5 -42t-41 -17t-42 17t-17.5 42zM225 418v1171q0 25 17.5 42.5t42 17.5t41 -17.5t16.5 -42.5v-1171q0 -25 -16.5 -42.5t-41 -17.5t-42 17.5t-17.5 42.5z" />
<glyph unicode="&#x22;" horiz-adv-x="618" d="M96 1393l76 217q10 23 31.5 33t44 1.5t34 -30t1.5 -43.5l-76 -217q-8 -23 -30.5 -33t-45 -2t-33 29.5t-2.5 44.5zM356 1393l76 217q8 23 30.5 33t45.5 2q20 -8 31.5 -30t3.5 -44l-76 -217q-10 -23 -31.5 -33t-44 -2t-33 29.5t-2.5 44.5z" />
<glyph unicode="#" horiz-adv-x="1658" d="M72 733.5q0 24.5 17 41t42 16.5h350l109 348h-314q-25 0 -42 17.5t-17 41.5q0 23 17.5 40t41.5 17h351l110 353q8 23 29.5 35t44.5 3.5t34 -30t3 -43.5l-98 -318h342l110 353q6 23 27.5 35t44.5 4q25 -8 36 -30t3 -44l-99 -318h314q25 0 42 -17t17 -40q0 -25 -17.5 -42 t-41.5 -17h-350l-109 -348h313q23 0 40.5 -16.5t17.5 -41t-17.5 -42t-40.5 -17.5h-350l-110 -352q-8 -23 -30 -34.5t-44 -4.5q-23 8 -35 29.5t-4 43.5l100 318h-342l-110 -352q-8 -23 -29.5 -34.5t-44.5 -4.5q-23 8 -34 29.5t-5 43.5l100 318h-313q-25 0 -42 17.5t-17 42z M604 791h342l109 348h-342z" />
<glyph unicode="$" horiz-adv-x="1185" d="M115 344q-4 25 10 44.5t39 23.5q25 2 45 -12.5t22 -39.5q31 -219 297 -251v718q-180 76 -278 171.5t-98 252.5q0 166 102 271.5t274 122.5v139q0 25 16.5 42t41 17t42 -17.5t17.5 -41.5v-137q152 -12 256.5 -93t136.5 -213q6 -25 -6 -45t-37 -26q-23 -6 -44 7t-27 38 q-23 90 -96.5 145.5t-182.5 65.5v-619q203 -82 283 -155q145 -121 145 -332q0 -195 -147 -318q-113 -94 -281 -110v-115q0 -25 -17.5 -42t-42 -17t-41 17.5t-16.5 41.5v115q-150 12 -247 80q-141 98 -166 272zM272 1251q0 -98 59.5 -161.5t196.5 -128.5v563 q-106 -12 -170 -68q-86 -74 -86 -205zM645 111q117 14 205 84q102 84 102 225t-77.5 217t-229.5 141v-667z" />
<glyph unicode="%" horiz-adv-x="1447" d="M72 1145v278q0 109 78 170q72 55 178 56q109 0 176 -56q80 -63 80 -170v-278q0 -106 -80 -170q-72 -55 -176 -55q-102 0 -178 55q-78 61 -78 170zM174 1145q0 -61 45 -91t108.5 -30t107.5 29.5t44 91.5v278q0 61 -44 91t-107.5 30t-108.5 -29.5t-45 -91.5v-278zM264 74 l780 1542q10 23 33 30t45.5 -3.5t29.5 -34t-3 -45.5l-778 -1543q-27 -51 -80 -26q-52 27 -27 80zM864 213v279q0 109 78 170q70 55 178.5 55t175.5 -55q80 -63 80 -170v-279q0 -106 -80 -170q-72 -55 -176 -55q-102 0 -178 55q-78 61 -78 170zM967 213q0 -61 45 -91 t108.5 -30t107.5 30t44 91v279q0 61 -44 90.5t-107.5 29.5t-108.5 -29.5t-45 -90.5v-279z" />
<glyph unicode="&#x26;" horiz-adv-x="1413" d="M143 471q0 143 61.5 250.5t174.5 165.5q-39 27 -68 57q-104 111 -104 297q0 172 104 287q111 121 303 121q166 0 277 -95q20 -16 20 -43q0 -20 -14 -38q-16 -18 -41 -20.5t-43 13.5q-76 66 -199 66q-137 0 -217 -84q-74 -80 -73 -207q0 -137 73 -217q78 -84 219 -84h666 q25 0 42 -17.5t17 -42t-17 -42t-42 -17.5h-195v-350q0 -203 -122 -332q-129 -139 -348.5 -139t-352.5 139q-121 131 -121 332zM260 471q0 -156 90 -252q102 -102 264 -102q168 0 265 102q90 94 90 252v350h-353q-170 0 -266 -100q-90 -100 -90 -250z" />
<glyph unicode="'" horiz-adv-x="360" d="M96 1393l76 217q10 23 31.5 33t44 1.5t34 -30t1.5 -43.5l-76 -217q-8 -23 -30.5 -33t-45 -2t-33 29.5t-2.5 44.5z" />
<glyph unicode="(" horiz-adv-x="757" d="M184 842q0 279 99.5 523.5t294.5 401.5q20 16 44.5 13.5t39.5 -23.5q16 -18 13 -42.5t-24 -39.5q-168 -135 -258 -350t-90 -483q0 -276 92 -506t256 -361q20 -14 23.5 -39.5t-13 -44t-40 -20.5t-43.5 12q-184 147 -289 401.5t-105 557.5z" />
<glyph unicode=")" horiz-adv-x="757" d="M83 -64.5q3 25.5 23 39.5q164 131 256.5 360.5t92.5 506.5q0 268 -90.5 483t-258.5 350q-20 14 -23 39t13 43q14 20 39 23.5t45 -13.5q195 -158 294 -402.5t99 -522.5q0 -303 -104 -557t-289 -402q-20 -14 -43.5 -12t-40 20.5t-13.5 44z" />
<glyph unicode="*" horiz-adv-x="1005" d="M84 894q4 24 25 38l292 207l-292 207q-20 14 -24.5 37.5t9.5 43.5q16 20 39 24.5t43 -9.5l268 -191v328q0 25 17.5 42t42 17t41 -17t16.5 -42v-328l268 191q20 14 44 10t38.5 -24.5t10.5 -44t-25 -37.5l-293 -207l293 -207q20 -14 24.5 -38t-10 -44.5t-38 -24.5t-44.5 11 l-268 190v-330q0 -23 -16.5 -40t-41 -17t-42 17.5t-17.5 39.5v330l-268 -190q-20 -14 -42.5 -10.5t-39.5 24.5q-14 20 -10 44z" />
<glyph unicode="+" horiz-adv-x="1110" d="M113 698.5q0 24.5 17 42t42 17.5h324v323q0 25 17 42.5t42 17.5t41 -17.5t16 -42.5v-323h326q25 0 42 -17.5t17 -42t-17 -42t-42 -17.5h-326v-324q0 -25 -16 -42t-41 -17t-42 17.5t-17 41.5v324h-324q-25 0 -42 17.5t-17 42z" />
<glyph unicode="," horiz-adv-x="481" d="M96 -20l76 217q10 23 31.5 33t44 1.5t33 -30t2.5 -43.5l-76 -217q-8 -23 -30.5 -33t-45 -2t-33 29.5t-2.5 44.5z" />
<glyph unicode="-" horiz-adv-x="684" d="M113 819.5q0 24.5 17 42t42 17.5h340q25 0 42 -17.5t17 -42t-17 -42t-42 -17.5h-340q-25 0 -42 17.5t-17 42z" />
<glyph unicode="." horiz-adv-x="423" d="M113 47v115q0 23 17 40t42 17q23 0 40 -17.5t17 -39.5v-115q0 -25 -17 -42t-40 -17q-25 0 -42 17t-17 42z" />
<glyph unicode="/" horiz-adv-x="942" d="M27 -33l751 1755q10 23 34 30t46 -3q51 -27 27 -80l-752 -1755q-12 -23 -34.5 -30t-45.5 3q-51 27 -26 80z" />
<glyph unicode="0" horiz-adv-x="1286" d="M174 395v848q0 182 129 294t340 112t340 -112t129 -294v-848q0 -182 -129 -294.5t-340 -112.5t-340 112.5t-129 294.5zM293 395q0 -135 96 -213q98 -76 254 -76q160 0 254 76q98 76 98 213v848q0 133 -98 211q-94 76 -254 76q-156 0 -254 -76q-96 -78 -96 -211v-848z" />
<glyph unicode="1" horiz-adv-x="864" d="M133 1179.5q0 24.5 16.5 42t40.5 17.5q137 0 213 98q76 94 76 252q0 25 17.5 42.5t42 17.5t42 -17.5t17.5 -42.5v-1542q0 -25 -17.5 -42t-42 -17t-42 17.5t-17.5 41.5v1196q-111 -123 -289 -123q-25 0 -41 17.5t-16 42z" />
<glyph unicode="2" horiz-adv-x="1200" d="M121 31q-16 33 2 61l524 721q78 104 117 158.5t84 142.5t45 148q0 119 -88 190q-102 80 -230 80q-111 0 -199.5 -49t-111.5 -152q-6 -23 -26.5 -36t-42.5 -9q-25 6 -38.5 26.5t-6.5 45.5q31 141 153 219q115 72 272 72q195 0 315 -108.5t120 -278.5q0 -25 -5.5 -51.5 t-11.5 -49t-19 -54.5t-22.5 -51.5t-31 -54t-31.5 -51t-37 -54.5t-36 -51.5t-40 -53t-37 -50.5q-227 -311 -397 -546l-57 -78h733q25 0 42 -16.5t17 -41t-17.5 -42t-41.5 -17.5h-846q-35 0 -51 31z" />
<glyph unicode="3" horiz-adv-x="1163" d="M109 272q-8 20 1 44t31.5 32t45 -2t30.5 -33q39 -100 124 -154.5t206 -54.5q168 0 264 103q90 94 90 264q0 156 -90 250q-92 102 -264 102q-25 0 -42.5 17.5t-17.5 40.5q0 25 17.5 42t42.5 17q141 0 219 84q72 78 72 223q0 123 -72 201q-80 84 -219 84 q-109 0 -181.5 -53.5t-97.5 -147.5q-8 -23 -28.5 -35t-44.5 -6q-23 6 -36.5 28.5t-4.5 43.5q35 133 139 210t254 77q188 0 303 -121q106 -113 106 -281q0 -193 -106 -303q-25 -31 -66 -57q61 -29 113 -84q123 -129 123 -332q0 -215 -123 -344q-129 -139 -350 -139 q-158 0 -272.5 74.5t-165.5 209.5z" />
<glyph unicode="4" horiz-adv-x="1204" d="M131 395l666 1223q10 20 34.5 27.5t45.5 -5.5q31 -16 30 -51v-1163h97q23 0 40 -16.5t17 -41t-17.5 -42t-39.5 -17.5h-97v-262q0 -25 -17.5 -42t-42 -17t-42 17.5t-17.5 41.5v262h-606q-33 0 -49 29q-20 28 -2 57zM283 426h505v932q-446 -821 -505 -932z" />
<glyph unicode="5" horiz-adv-x="1224" d="M147 279q-8 23 2.5 44t33 29t45 -2t30.5 -33q37 -102 123 -157.5t209 -55.5q166 0 264 103q90 96 90 252q0 166 -90 262q-96 102 -264 102h-322q-25 0 -45 21q-16 20 -14 45l80 698q8 51 59 51h559q25 0 42.5 -17t17.5 -42t-17.5 -41t-42.5 -16h-508q-4 -41 -31.5 -286 t-33.5 -296h256q221 0 350 -139q121 -127 121 -342q0 -201 -121 -332q-133 -139 -350 -139q-166 0 -283 80q-115 80 -160 211z" />
<glyph unicode="6" horiz-adv-x="1255" d="M174 453v743q0 190 117 320q127 133 338 133q145 0 272 -78q119 -82 154 -205q18 -57 -37 -76q-23 -8 -44.5 3.5t-29.5 33.5q-74 203 -315 203q-162 0 -252 -96q-84 -90 -84 -238v-397q0 2 2 2q129 139 348 139t348 -139q121 -131 121 -342q0 -201 -121 -332 q-127 -139 -348 -139q-219 0 -348 139q-121 127 -121 326zM293 459q0 -158 88 -252q94 -100 262 -100.5t262 100.5q90 96 90 252q0 166 -90 262q-96 102 -262 102t-262 -102q-88 -94 -88 -262z" />
<glyph unicode="7" horiz-adv-x="1060" d="M82 1577q0 25 17.5 42t41.5 17h746q31 0 49 -24q16 -27 8 -53l-520 -1532q-8 -25 -29.5 -36t-44.5 -1q-25 8 -35 29.5t-2 43.5l492 1455h-664q-25 0 -42 17t-17 42z" />
<glyph unicode="8" horiz-adv-x="1271" d="M164 459q0 141 60.5 256.5t174.5 171.5q-39 27 -67 57q-104 111 -105 297q0 172 105 287q111 121 303 121q188 0 303 -121q106 -113 106 -287q0 -186 -106 -297q-25 -31 -66 -57q115 -57 175.5 -172t60.5 -256q0 -203 -123 -332q-129 -139 -350 -139q-217 0 -350 139 q-121 131 -121 332zM281 459q0 -160 96 -257.5t258 -97.5t259 97.5t95 257.5q-4 168 -94 266t-260 98q-166 0 -260 -99t-94 -265zM344 1241q0 -137 76 -220t215 -81q141 -2 216 81t75 220q0 131 -79 211t-212 80t-212 -80t-79 -211z" />
<glyph unicode="9" horiz-adv-x="1265" d="M154 1178q0 201 120 331q133 139 349 140q217 0 350 -140q119 -129 119 -325v-731q0 -201 -125 -327t-328 -126q-328 10 -428 283q-6 25 3 46t34 29q23 8 45 -3t31 -33q70 -203 315 -203q152 0 244 91t92 243v397q-131 -141 -352 -141q-215 0 -349 139q-120 131 -120 330 zM272 1177.5q0 -159.5 95.5 -256t255.5 -96.5q160 -2 256 95.5t96 257t-96.5 258t-255.5 96.5q-160 2 -255.5 -96.5t-95.5 -258z" />
<glyph unicode=":" horiz-adv-x="423" d="M113 47v115q0 23 17 40t42 17q23 0 40 -17.5t17 -39.5v-115q0 -25 -17 -42t-40 -17q-25 0 -42 17t-17 42zM113 766v113q0 25 17 42t42 17q23 0 40 -17.5t17 -41.5v-113q0 -25 -17 -42t-40 -17q-25 0 -42 17t-17 42z" />
<glyph unicode=";" horiz-adv-x="483" d="M96 -25l78 218q8 23 29.5 33t44 1.5t34 -30t1.5 -43.5l-76 -217q-8 -23 -29.5 -34.5t-44.5 -0.5q-23 8 -34 29t-3 44zM131 770v115q0 25 17.5 42t42 17t41 -17.5t16.5 -41.5v-115q0 -25 -16.5 -41t-41 -16t-42 16t-17.5 41z" />
<glyph unicode="&#x3c;" horiz-adv-x="845" d="M166 696.5q0 24.5 16 40.5l400 400q16 16 40.5 16t41.5 -16q41 -43 0 -84l-357 -357l357 -356q41 -41 0 -84q-16 -16 -41 -16t-41 16l-400 399q-16 17 -16 41.5z" />
<glyph unicode="=" horiz-adv-x="704" d="M123 618.5q0 24.5 17.5 42t41.5 17.5h340q25 0 42.5 -17.5t17.5 -42t-17.5 -42t-42.5 -17.5h-340q-25 0 -42 17.5t-17 42zM123 819.5q0 24.5 17.5 42t41.5 17.5h340q25 0 42.5 -17.5t17.5 -42t-17.5 -42t-42.5 -17.5h-340q-25 0 -42 17.5t-17 42z" />
<glyph unicode="&#x3e;" horiz-adv-x="845" d="M164 283.5q0 23.5 18 42.5l357 356l-357 356q-18 18 -18 42t18 42q16 16 41 16.5t41 -16.5l400 -399q16 -16 16 -41t-16 -41l-400 -399q-16 -16 -40.5 -16.5t-41.5 16.5q-18 18 -18 41.5z" />
<glyph unicode="?" horiz-adv-x="1124" d="M61 1241q0 182 129 295t340 113t341 -113t130 -295q-4 -100 -45 -177t-76.5 -106.5t-103.5 -74.5q-68 -49 -80 -60q-74 -63 -90 -129.5t-14 -201.5v-74q0 -25 -16.5 -41.5t-40.5 -18.5q-25 0 -42.5 17.5t-17.5 42.5l-2 71q0 78 2 118t14.5 101.5t44 109.5t87.5 95 q39 33 90 68q61 41 90.5 65.5t55.5 80t26 130.5q-4 123 -99 197q-94 76 -254 76q-156 0 -254 -76q-96 -78 -96 -213q0 -25 -17.5 -42t-42 -17t-42 17t-17.5 42zM473 47v115q0 25 17.5 42t42 17t42 -17.5t17.5 -41.5v-115q0 -25 -17.5 -42t-42 -17t-42 17t-17.5 42z" />
<glyph unicode="@" horiz-adv-x="1617" d="M154 551v536q0 252 181 407t476 155q293 0 473 -156t180 -406v-479q0 -139 -43 -205q-59 -94 -186 -94q-137 0 -199 84q-84 -84 -229 -84q-123 0 -205 64q-94 72 -94 200v285q0 117 85 194.5t214 77.5q131 0 216 -77.5t85 -194.5v-250q0 -111 27.5 -145.5t99.5 -34.5 q59 0 85 35t26 145v479q0 209 -152 326q-145 117 -383 117t-383 -117q-154 -119 -154 -326v-536q0 -209 154 -328q147 -113 383 -112q27 0 44 -18.5t17 -43t-17 -43t-44 -18.5q-295 0 -476 155.5t-181 407.5zM629 573q0 -74 52 -107.5t126 -33.5q76 0 128 34t52 107v285 q0 72 -53 112t-127 40q-72 0 -125 -40t-53 -112v-285z" />
<glyph unicode="A" d="M76 63l456 1547q10 41 56 41q43 0 57 -41l457 -1549q2 -8 2 -14q0 -15 -8 -30q-12 -22 -35 -27q-9 -3 -18 -4q-13 0 -26 8q-22 12 -28 35l-123 413h-557q-72 -244 -121 -413q-6 -23 -27 -34q-14 -7 -29 -7q-8 0 -17 2q-23 8 -34 29q-7 14 -7 29q0 7 2 15zM344 561h487 q-41 141 -130 441.5t-113 381.5q-144 -491 -244 -823z" />
<glyph unicode="B" horiz-adv-x="1273" d="M205 59v1518q0 25 17.5 42t41.5 17h406q170 0 270 -123q96 -115 96 -284.5t-96 -282.5q-16 -23 -43 -45q109 -51 171 -163.5t62 -268.5q0 -211 -112.5 -340t-294.5 -129h-459q-25 0 -42 17t-17 42zM322 117h401q133 0 213 98q78 100 78 254q0 158 -78 254q-76 98 -213 98 h-401v-704zM322 940h352q119 0 181.5 85t62.5 204t-63.5 205t-184.5 86h-348v-580z" />
<glyph unicode="C" horiz-adv-x="1214" d="M174 395v848q0 182 129 294t340 112t340 -112t129 -294q0 -25 -17.5 -42t-41.5 -17q-23 0 -40.5 17.5t-17.5 41.5q0 133 -98 211q-94 76 -254 76q-156 0 -254 -76q-96 -78 -96 -211v-848q0 -135 96 -213q98 -76 254 -76q160 0 254 76q98 76 98 213q0 23 17.5 40.5 t40.5 17.5q25 0 42 -17.5t17 -40.5q0 -182 -129 -294.5t-340 -112.5t-340 112.5t-129 294.5z" />
<glyph unicode="D" horiz-adv-x="1337" d="M205 59v1520q0 25 17.5 42t41.5 17h430q211 0 340 -111.5t129 -293.5v-825q0 -193 -143 -306q-127 -102 -326 -102h-430q-25 0 -42 17t-17 42zM322 117h372q139 0 244.5 71.5t105.5 219.5v825q0 135 -98 211q-98 78 -252 78q-285 -2 -372 -2v-1403z" />
<glyph unicode="E" horiz-adv-x="1167" d="M205 59v1520q0 25 17.5 42t41.5 17h725q25 0 42.5 -17t17.5 -42t-17.5 -42t-42.5 -17h-665v-580h612q25 0 42 -17.5t17 -42t-17 -41t-42 -16.5h-612v-704h682q25 0 42 -17.5t17 -42t-17.5 -42t-41.5 -17.5h-742q-25 0 -42 17t-17 42z" />
<glyph unicode="F" horiz-adv-x="1083" d="M205 47v1530q0 25 17.5 42t41.5 17h699q25 0 42 -17t17 -42t-17.5 -42t-41.5 -17h-639v-578h585q25 0 42.5 -17.5t17.5 -42t-17.5 -41t-42.5 -16.5h-585v-776q0 -25 -17.5 -42t-42 -17t-42 17t-17.5 42z" />
<glyph unicode="G" horiz-adv-x="1286" d="M174 393v850q0 182 129 294t340 112t340 -112t129 -294q0 -25 -17.5 -42t-42 -17t-42 17.5t-17.5 41.5q0 133 -98 211q-96 78 -252 78q-154 0 -254 -78q-98 -80 -98 -211v-850q0 -131 98 -211q100 -78 254 -78q156 0 252 78q98 76 98 211v328h-352q-23 0 -40 17.5 t-17 39.5q0 25 17 42.5t40 17.5h412q25 0 42 -17.5t17 -42.5v-385q0 -182 -129 -293.5t-340 -111.5t-340 111.5t-129 293.5z" />
<glyph unicode="H" horiz-adv-x="1302" d="M184 47v1542q0 25 17.5 42.5t42.5 17.5q23 0 40 -17.5t17 -42.5v-647h698v647q0 25 17.5 42.5t42 17.5t42 -17.5t17.5 -42.5v-1542q0 -25 -17.5 -42t-42 -17t-42 17.5t-17.5 41.5v778h-698v-778q0 -25 -17.5 -42t-39.5 -17q-25 0 -42.5 17t-17.5 42z" />
<glyph unicode="I" horiz-adv-x="569" d="M225 47v1542q0 25 17.5 42.5t42 17.5t42 -17.5t17.5 -42.5v-1542q0 -25 -17.5 -42t-42 -17t-42 17t-17.5 42z" />
<glyph unicode="J" horiz-adv-x="753" d="M51 47.5q0 24.5 17.5 41.5t42.5 17q150 0 250 74t100 215v1194q0 25 17.5 42.5t42 17.5t42 -17.5t17.5 -42.5v-1194q0 -182 -129 -294.5t-340 -112.5q-25 0 -42.5 17.5t-17.5 42z" />
<glyph unicode="K" horiz-adv-x="1220" d="M205 47v1542q0 25 17.5 42.5t42 17.5t42 -17.5t17.5 -42.5v-827l686 864q14 20 39 24h7q20 0 38 -14q18 -16 20 -39.5t-12 -44.5l-453 -569l492 -909q8 -13 7 -27q0 -8 -2 -17q-7 -24 -28 -36q-20 -10 -44.5 -3t-35.5 27l-469 865l-245 -310v-526q0 -25 -17.5 -42 t-42 -17t-42 17t-17.5 42z" />
<glyph unicode="L" horiz-adv-x="1073" d="M205 59v1530q0 25 17.5 42.5t42 17.5t42 -17.5t17.5 -42.5v-1470h639q25 0 42 -17.5t17 -42t-17.5 -42t-41.5 -17.5h-699q-25 0 -42 17t-17 42z" />
<glyph unicode="M" horiz-adv-x="1529" d="M184 47v1542q0 49 47 58q9 2 18 1q35 0 48 -36l463 -1116q92 221 463 1116q15 37 49 36q8 0 16 -1q47 -6 47 -58v-1542q0 -25 -17.5 -42t-39.5 -17q-25 0 -42 17.5t-17 41.5v1247q-141 -346 -404 -975q-16 -37 -55 -36.5t-53 36.5l-404 975v-1247q0 -25 -17.5 -42 t-42 -17t-42 17t-17.5 42z" />
<glyph unicode="N" horiz-adv-x="1361" d="M205 47v1542q0 47 45 58q9 2 17 2q31 0 48 -31l723 -1337v1308q0 25 17.5 42.5t42 17.5t42 -17.5t17.5 -42.5v-1542q0 -47 -45 -57q-9 -2 -18 -2q-32 0 -47 30l-723 1338v-1309q0 -25 -17.5 -42t-42 -17t-42 17t-17.5 42z" />
<glyph unicode="O" horiz-adv-x="1245" d="M154 395v848q0 182 129 294t340 112t340 -112t129 -294v-848q0 -182 -129 -294.5t-340 -112.5t-340 112.5t-129 294.5zM272 395q0 -135 97 -213q98 -76 254 -76q160 0 254 76q98 76 98 213v748q-201 0 -329 102.5t-140 272.5q-80 -18 -137 -64q-96 -78 -97 -211v-848z M623 1530q6 -123 98 -193q94 -76 252 -75q-6 121 -96 192q-94 76 -254 76z" />
<glyph unicode="P" horiz-adv-x="1144" d="M205 47v1532q0 25 17.5 42t41.5 17h412q178 0 287.5 -127t109.5 -331.5t-109.5 -330.5t-287.5 -126h-354v-676q0 -25 -16.5 -42t-41 -17t-42 17t-17.5 42zM322 840h354q129 0 205 94q74 96 73 246q0 154 -73 245q-74 96 -205 97h-354v-682z" />
<glyph unicode="Q" horiz-adv-x="1302" d="M154 395v846q0 182 129 294t340 112t340 -112t129 -294v-846q0 -150 -91.5 -254t-244.5 -137q25 -66 80 -108q100 -78 254 -78q25 0 42 -16.5t17 -41t-17.5 -42t-41.5 -17.5q-172 0 -293 78t-160 211h-14q-211 0 -340 111.5t-129 293.5zM270 512q205 0 334 -107.5 t135 -283.5q82 18 135 63q98 78 99 211v846q0 135 -99 211q-96 78 -251 78q-154 0 -254 -78q-98 -80 -99 -211v-729zM272 393q0 -135 97 -209q94 -74 252 -78q0 133 -97 211q-98 76 -252 76z" />
<glyph unicode="R" horiz-adv-x="1202" d="M205 47v1530q0 25 17.5 42t41.5 17h412q178 0 287.5 -127t109.5 -331q0 -176 -84 -296t-225 -151l309 -659q6 -13 6 -25q0 -10 -4 -20q-8 -23 -30.5 -33t-45 -2t-32.5 31l-328 698h-317v-674q0 -25 -16.5 -42t-41 -17t-42 17t-17.5 42zM322 840h354q129 0 205 94 q74 96 73 244q0 154 -73 245q-74 96 -205 97h-354v-680z" />
<glyph unicode="S" horiz-adv-x="1185" d="M115 344q-1 5 -1 11q0 18 11 33q14 19 39 24q25 2 45 -12.5t22 -39.5q12 -82 57.5 -137t107 -77.5t106.5 -31t84 -8.5q152 0 264 89q102 84 102 225q0 82 -25.5 142.5t-84 104.5t-103.5 67.5t-135 62.5q-106 41 -171.5 74.5t-138.5 88t-107.5 126t-34.5 165.5 q0 180 119.5 289t320.5 109q174 0 293 -82t153 -226q6 -25 -6 -45t-37 -26q-23 -6 -44 7t-27 38q-25 100 -113 156.5t-219 56.5q-150 0 -234 -72q-86 -74 -86 -205q0 -119 82 -185.5t297 -160.5q199 -82 277 -153q145 -121 145 -332q0 -195 -147 -318q-137 -113 -340 -112 q-180 0 -305 82q-141 98 -166 272z" />
<glyph unicode="T" horiz-adv-x="962" d="M51 1577q0 25 17.5 42t42.5 17h907q25 0 41 -17t16 -42t-16.5 -41t-40.5 -16h-395v-1473q0 -25 -17.5 -42t-42 -17t-41 17.5t-16.5 41.5v1473h-395q-25 0 -42.5 16t-17.5 41z" />
<glyph unicode="U" horiz-adv-x="1347" d="M205 395v1194q0 25 17.5 42.5t42 17.5t42 -17.5t17.5 -42.5v-1194q0 -135 96 -213q98 -76 254 -76q160 0 254 76q98 76 98 213v1194q0 25 17.5 42.5t39.5 17.5q25 0 42.5 -17.5t17.5 -42.5v-1194q0 -182 -129 -294.5t-340 -112.5t-340 112.5t-129 294.5z" />
<glyph unicode="V" horiz-adv-x="1095" d="M74 1575q-2 8 -2 16q0 15 8 29q12 20 37 27q8 2 15 2q15 0 29 -9q22 -12 27 -36l334 -1332q98 338 385 1334q8 23 30 34q14 8 29 9q7 0 15 -2q23 -8 35 -29q8 -14 8 -29q0 -8 -2 -16l-447 -1542q-12 -43 -57 -43q-43 0 -57 45z" />
<glyph unicode="W" horiz-adv-x="1925" d="M74 1575q-2 8 -2 16q0 15 8 29q12 20 37 27q8 2 15 2q15 0 29 -9q22 -12 27 -36l334 -1332q96 338 383 1334q12 43 58 43q47 0 57 -45l334 -1332q96 338 385 1334q6 23 27 34q14 8 30 9q7 0 14 -2q23 -8 35 -29q8 -14 8 -29q0 -8 -2 -16l-444 -1542q-10 -43 -57 -43 q-45 0 -56 45l-336 1331q-96 -338 -383 -1333q-12 -43 -57 -43q-43 0 -57 45z" />
<glyph unicode="X" horiz-adv-x="1120" d="M75 31q-3 9 -3 17q0 15 8 28l414 755l-402 730q-12 23 -5 46t28 33q13 8 27 8q8 0 18 -2q25 -7 35 -28l364 -664l365 664q12 23 34 29q8 2 15 2l31 -9q20 -10 27 -34.5t-3 -44.5l-401 -730l413 -755q8 -13 8 -28q0 -8 -2 -17q-7 -25 -28 -35q-13 -8 -28 -8q-8 0 -17 3 q-25 7 -35 27l-379 691l-377 -691q-12 -23 -35 -28q-8 -2 -15 -2l-30 8q-20 10 -27 35z" />
<glyph unicode="Y" horiz-adv-x="1183" d="M164 856v733q0 25 17.5 42.5t42 17.5t41 -17.5t16.5 -42.5v-733q0 -113 79 -174q80 -63 211 -63.5t211 63.5q80 61 80 174v733q0 25 17.5 42.5t40.5 17.5q25 0 42 -17.5t17 -42.5v-1247q0 -158 -112.5 -256t-295.5 -98q-162 0 -272.5 79.5t-130.5 213.5q-4 25 10.5 45 t38.5 22q25 4 44.5 -10t23.5 -39q16 -98 99 -146.5t187 -48.5q131 0 211 64q80 66 80 174v252q-115 -94 -291 -94q-182 0 -294.5 98t-112.5 258z" />
<glyph unicode="Z" horiz-adv-x="1081" d="M72 59q0 14 6 27l774 1432h-721q-25 0 -42 17t-17 42t17 42t42 17h819q23 0 41.5 -17t18.5 -42q0 -16 -9 -27l-772 -1431h721q25 0 42.5 -17.5t17.5 -42t-17.5 -42t-42.5 -17.5h-819q-25 0 -42 17t-17 42z" />
<glyph unicode="[" horiz-adv-x="788" d="M246 -176v1872q0 25 17.5 42t41.5 17h342q25 0 42.5 -17.5t17.5 -42t-17.5 -42t-42.5 -17.5h-282v-1753h282q25 0 42.5 -17.5t17.5 -42t-17.5 -42t-42.5 -17.5h-342q-25 0 -42 17.5t-17 42.5z" />
<glyph unicode="\" horiz-adv-x="931" d="M47 1673q-25 53 27 80q20 10 44.5 3t35.5 -30l751 -1755q25 -53 -26 -80q-23 -10 -45.5 -2.5t-34.5 29.5z" />
<glyph unicode="]" horiz-adv-x="788" d="M82 -176.5q0 24.5 17.5 42t41.5 17.5h283v1753h-283q-25 0 -42 17.5t-17 42t17.5 42t41.5 17.5h342q25 0 42.5 -17.5t17.5 -41.5v-1872q0 -25 -17.5 -42.5t-42.5 -17.5h-342q-25 0 -42 17.5t-17 42z" />
<glyph unicode="^" horiz-adv-x="1058" d="M78.5 1168.5q-15.5 35.5 11.5 64.5l399 399q16 16 41 16.5t41 -16.5l400 -399q27 -27 12.5 -63.5t-53.5 -36.5q-25 0 -43 18l-357 356l-356 -356q-18 -18 -41 -18q-39 0 -54.5 35.5z" />
<glyph unicode="_" horiz-adv-x="956" d="M113 59.5q0 24.5 17 42t42 17.5h612q25 0 42.5 -17.5t17.5 -42t-17.5 -42t-42.5 -17.5h-612q-25 0 -42 17.5t-17 42z" />
<glyph unicode="`" horiz-adv-x="473" d="M96 1571q-8 23 2.5 44t33 29.5t45 -2t30.5 -32.5l76 -217q10 -23 -1.5 -44.5t-34 -29.5t-44 2t-31.5 33z" />
<glyph unicode="a" horiz-adv-x="1181" d="M143 342v444q0 166 123 271q115 96 285 96t285 -96q123 -104 122 -271v-499q0 -76 35 -128.5t111 -52.5q25 0 41 -17t16 -41.5t-16.5 -42t-40.5 -17.5q-156 0 -225 131q-111 -131 -328 -131q-182 0 -295 98t-113 256zM262 342q0 -113 78 -174q82 -63 211 -63.5t209 63.5 q80 61 80 174v444q0 121 -85 185.5t-204 64.5t-204 -64.5t-85 -185.5v-444z" />
<glyph unicode="b" horiz-adv-x="1124" d="M164 328v1263q0 25 17.5 41.5t42 16.5t42 -16.5t17.5 -41.5v-538q121 100 290 100q172 0 285 -94q123 -104 123 -273v-444q0 -160 -112.5 -257t-295.5 -97q-180 0 -294.5 94t-114.5 246zM283 342q0 -113 79 -174q80 -63 211 -64q129 0 211 64q80 61 80 174v444 q0 121 -86 185.5t-204.5 64.5t-204.5 -64.5t-86 -185.5v-444z" />
<glyph unicode="c" horiz-adv-x="1087" d="M143 342v446q0 170 123 271q113 94 283 94q156 0 266.5 -81t134.5 -214q4 -25 -10 -44t-37 -23q-25 -4 -45 9t-22 38q-16 90 -94 144t-193 54q-119 0 -204 -63.5t-85 -184.5v-446q0 -109 80 -174q84 -63 209 -64q106 0 188 48.5t99 148.5q4 23 23.5 37t43.5 12 q23 -4 37 -23.5t12 -43.5q-23 -133 -132 -214t-271 -81q-180 0 -293 98t-113 256z" />
<glyph unicode="d" horiz-adv-x="1214" d="M143 342v444q0 168 125 271q113 96 283 96q172 0 291 -100v538q0 23 16 40.5t41 17.5t42 -17.5t17 -40.5v-1304q0 -76 35 -128.5t111 -52.5q25 0 42 -17t17 -41.5t-17.5 -42t-41.5 -17.5q-152 0 -225 131q-111 -131 -328 -131q-182 0 -295 98t-113 256zM262 342 q0 -113 80 -174q80 -63 209 -64q131 0 211 63.5t80 174.5v444q0 121 -86 185.5t-205 64.5t-204 -64.5t-85 -185.5v-444z" />
<glyph unicode="e" horiz-adv-x="1079" d="M143 340v448q0 170 123 271q113 94 283 94q172 0 285 -94q123 -100 122 -271v-139q0 -49 -47 -57l-649 -123v-129q0 -111 80 -174q80 -61 209 -62q106 0 188 47.5t99 147.5q4 23 23.5 37t43.5 12q23 -4 37 -23.5t12 -43.5q-23 -133 -132 -213t-271 -80q-182 0 -294 97 t-112 255zM260 588q49 8 295 55t285 53v92q0 121 -85 184.5t-206 63.5q-119 0 -204 -63.5t-85 -184.5v-200z" />
<glyph unicode="f" horiz-adv-x="784" d="M61 1083.5q0 24.5 17.5 41t42.5 16.5h155v141q0 170 123 270q115 96 285 97q25 0 42 -17.5t17 -42t-17 -41t-42 -16.5q-119 0 -205 -64.5t-86 -185.5v-141h238q25 0 42 -16.5t17 -41t-17.5 -42t-41.5 -17.5h-238v-977q0 -25 -16.5 -42t-41 -17t-42 17.5t-17.5 41.5v977 h-155q-25 0 -42.5 17.5t-17.5 42z" />
<glyph unicode="g" horiz-adv-x="1294" d="M143 342v444q0 168 123 273q117 94 285 94t285 -94q39 -35 63 -72q98 166 295 166q25 0 42 -16.5t17 -41t-17 -42t-42 -17.5q-109 0 -174 -80q-61 -80 -62 -208v-891q0 -158 -112.5 -255.5t-294.5 -97.5q-162 0 -271.5 80t-132.5 213q-1 6 0 11q0 47 50 57q6 1 11 0 q47 0 56 -49q16 -100 98 -147.5t189 -47.5q129 0 211 64q78 61 78 172v223q-109 -92 -289 -92q-182 0 -295 97t-113 257zM260 342q0 -113 80 -174q80 -63 211 -64q129 0 211 64q78 61 78 174v444q0 121 -85 185.5t-204 64.5t-205 -64.5t-86 -185.5v-444z" />
<glyph unicode="h" horiz-adv-x="1134" d="M174 47v1542q0 25 17.5 42.5t42 17.5t42 -17.5t17.5 -42.5v-536l4 4q115 96 287 96q170 0 284 -96q123 -100 123 -271v-739q0 -25 -17.5 -42t-41.5 -17q-23 0 -40.5 17.5t-17.5 41.5v739q0 121 -86 185.5t-204.5 64.5t-204.5 -64.5t-86 -185.5v-739q0 -25 -17.5 -42 t-42 -17t-42 17t-17.5 42z" />
<glyph unicode="i" horiz-adv-x="485" d="M184 47v1047q0 25 17.5 42t42 17t41 -17.5t16.5 -41.5v-1047q0 -25 -16.5 -42t-41 -17t-42 17t-17.5 42zM184 1475v114q0 25 17.5 42.5t42 17.5t41 -17.5t16.5 -42.5v-114q0 -25 -16.5 -42.5t-41 -17.5t-42 17.5t-17.5 42.5z" />
<glyph unicode="j" horiz-adv-x="559" d="M-92 -436.5q0 24.5 17.5 42t41.5 17.5q125 0 208 60.5t83 177.5v1233q0 25 17.5 42t42 17t41 -17.5t16.5 -41.5v-1233q0 -160 -112.5 -258.5t-295.5 -98.5q-25 0 -42 17.5t-17 42zM258 1475v114q0 25 17.5 42.5t42 17.5t41 -17.5t16.5 -42.5v-114q0 -25 -16.5 -42.5 t-41 -17.5t-42 17.5t-17.5 42.5z" />
<glyph unicode="k" horiz-adv-x="987" d="M174 47v1542q0 25 16.5 42.5t41 17.5t42 -17.5t17.5 -42.5v-1007l516 553q16 18 40.5 19t43 -15.5t18.5 -41t-16 -42.5l-346 -369l360 -610q8 -13 8 -27q0 -8 -3 -17q-7 -24 -27 -36q-14 -8 -29 -8q-8 0 -15 2q-24 6 -36 26l-340 580l-174 -186v-363q0 -25 -17.5 -42 t-42 -17t-41 17t-16.5 42z" />
<glyph unicode="l" horiz-adv-x="630" d="M143 342v1247q0 25 17.5 42.5t42 17.5t41 -17.5t16.5 -42.5v-1247q0 -106 80 -174q82 -63 211 -64q25 0 42 -16t17 -40.5t-17.5 -42t-41.5 -17.5q-182 0 -295 98t-113 256z" />
<glyph unicode="m" horiz-adv-x="1835" d="M174 47v1047q0 25 17.5 42t42 17t41 -17.5t16.5 -41.5v-41q121 100 293 100t284 -94q39 -37 66 -74q23 35 63 74q113 94 285 94q174 0 287 -94q123 -106 123 -273v-739q0 -25 -17.5 -42t-42 -17t-42 17.5t-17.5 41.5v739q0 121 -86 185.5t-205 64.5t-205 -64.5 t-86 -185.5v-739q0 -25 -16.5 -42t-41 -17t-42 17.5t-17.5 41.5v739q0 121 -86 185.5t-204.5 64.5t-204.5 -64.5t-86 -185.5v-739q0 -25 -17.5 -42t-42 -17t-42 17t-17.5 42z" />
<glyph unicode="n" horiz-adv-x="1134" d="M174 47v1047q0 25 17.5 42t42 17t42 -17.5t17.5 -41.5v-41q106 100 291 100q164 0 282 -98q125 -106 125 -269v-739q0 -25 -17.5 -42t-41.5 -17q-23 0 -40.5 17.5t-17.5 41.5v739q0 121 -86 185.5t-204.5 64.5t-204.5 -64.5t-86 -185.5v-739q0 -25 -17.5 -42t-42 -17 t-42 17t-17.5 42z" />
<glyph unicode="o" horiz-adv-x="1103" d="M143 342v444q0 166 123 271q115 96 287 96q170 0 285 -96q123 -100 123 -271v-444q0 -158 -113 -256t-295 -98q-184 0 -297 98t-113 256zM262 342q0 -109 80 -174q80 -63 211 -64q129 0 211 64q80 66 80 174v338q-178 0 -290 92t-120 244q-78 -25 -125 -83.5t-47 -146.5 v-444zM553 1034q0 -109 80 -174q80 -63 211 -63q-6 115 -90 176t-201 61z" />
<glyph unicode="p" horiz-adv-x="1134" d="M184 -436v1515q0 25 17.5 42.5t42 17.5t42 -17.5t17.5 -42.5v-20q111 94 291 94q182 0 294.5 -98.5t112.5 -255.5v-445q0 -170 -122 -270q-115 -96 -285 -96q-174 0 -291 100v-524q0 -25 -17.5 -42.5t-42 -17.5t-42 17.5t-17.5 42.5zM303 354q0 -121 86 -185.5t205 -64.5 t205 64.5t86 185.5v445q0 111 -80 174q-82 63 -211 63q-131 0 -211 -63.5t-80 -173.5v-445z" />
<glyph unicode="q" horiz-adv-x="1134" d="M133 354v445q0 158 112.5 256t297.5 98q176 0 291 -94v20q0 25 17 42.5t40 17.5q25 0 42 -17.5t17 -42.5v-280v-445v-790q0 -25 -17.5 -42.5t-41.5 -17.5q-23 0 -40 17.5t-17 42.5v524q-119 -100 -291 -100t-287 96q-123 104 -123 270zM252 354q0 -121 86 -185.5 t205 -64.5t205 64.5t86 185.5v445q0 111 -80 174q-82 63 -211 63q-131 0 -211 -63.5t-80 -173.5v-445z" />
<glyph unicode="r" horiz-adv-x="628" d="M164 47v1047q0 25 17.5 42t42 17t42 -17.5t17.5 -41.5v-33q96 92 237 92q25 0 41.5 -16.5t16.5 -41t-16.5 -42t-41.5 -17.5q-111 0 -176 -82q-61 -80 -61 -204v-703q0 -25 -17.5 -42t-42 -17t-42 17t-17.5 42z" />
<glyph unicode="s" horiz-adv-x="983" d="M115 272q-1 5 -1 11q0 18 11 34q14 20 38.5 24.5t45 -11t22.5 -39.5q16 -82 86 -132t172 -50q113 0 187 50t74 163q0 156 -252 219q-158 45 -236 100q-115 78 -115 197q0 141 94.5 228t247.5 87q121 0 211.5 -56.5t126.5 -156.5q8 -27 -3 -48.5t-36 -29.5q-14 -5 -26 -5 q-34 0 -49 40q-47 137 -224 137q-104 0 -164.5 -52t-60.5 -144q0 -106 264 -179q176 -47 259 -130t83 -207q0 -162 -116 -250q-106 -82 -265 -82q-147 0 -250.5 77.5t-123.5 204.5z" />
<glyph unicode="t" horiz-adv-x="753" d="M51 1083.5q0 24.5 17.5 41t42.5 16.5h155v448q0 25 17.5 42.5t42 17.5t41 -17.5t16.5 -42.5v-448h158q25 0 41 -16.5t16 -41t-16.5 -42t-40.5 -17.5h-158v-682q0 -106 80 -174q82 -63 211 -64q25 0 42 -16t17 -40.5t-17.5 -42t-41.5 -17.5q-182 0 -295 98t-113 256v682 h-155q-25 0 -42.5 17.5t-17.5 42z" />
<glyph unicode="u" horiz-adv-x="1124" d="M154 344v750q0 25 17 42t42 17t42 -17.5t17 -41.5v-750q0 -113 80 -174q82 -66 211 -66q125 0 211 66q80 61 80 174v750q0 25 17.5 42t39.5 17q25 0 42.5 -17.5t17.5 -41.5v-750q0 -160 -113 -258t-295 -98q-184 0 -296.5 98t-112.5 258z" />
<glyph unicode="v" horiz-adv-x="978" d="M76 1077q-3 9 -4 19q0 13 7 25q11 22 34 30q9 3 18 3q13 0 26 -6q22 -11 29 -34l303 -885q86 256 302 885q8 23 30 34q13 7 26 6l19 -3q23 -8 34 -30q7 -12 7 -25q0 -9 -4 -19l-358 -1050q-14 -39 -56 -39q-43 0 -57 39z" />
<glyph unicode="w" horiz-adv-x="1695" d="M78 1077q-4 10 -4 20q0 12 6 24q10 22 33 30q9 3 19 3l26 -6q23 -11 30 -34l301 -885q88 254 304 883q14 41 55 41q45 0 55 -41l303 -883q86 256 303 885q8 23 30 34q12 7 25 6q9 0 19 -3q23 -8 34 -30q7 -12 6 -25q0 -9 -3 -19l-358 -1050q-14 -39 -55.5 -39t-55.5 39 l-303 884q-86 -256 -301 -884q-14 -39 -58 -39q-41 0 -55 39z" />
<glyph unicode="x" horiz-adv-x="1085" d="M125 1105q4 24 25 38q15 11 31 10q6 0 13 -1q24 -5 37 -26l312 -454l311 454q14 20 38 26q6 1 12 1q17 0 32 -10q20 -14 25 -38q1 -5 0 -10q0 -18 -11 -34l-336 -494l332 -487q14 -20 10 -44t-24 -38q-15 -11 -32 -11q-6 0 -12 2q-24 5 -38 25l-307 449l-307 -449 q-14 -20 -38 -25q-6 -1 -13 -2q-17 0 -31 11q-20 14 -24.5 37.5t7.5 44.5l334 487l-338 494q-9 15 -9 32q0 6 1 12z" />
<glyph unicode="y" horiz-adv-x="1132" d="M143 344v750q0 25 17.5 42t42 17t41 -17.5t16.5 -41.5v-750q0 -115 84 -177.5t207 -62.5t207 62.5t84 177.5v750q0 25 17.5 42t39.5 17q25 0 42 -17.5t17 -41.5v-1235q0 -158 -112.5 -256.5t-294.5 -98.5q-164 0 -273.5 80t-130.5 215q-4 23 10.5 43.5t39.5 22.5 q25 4 44 -9.5t23 -37.5q16 -100 99 -148.5t188 -48.5q125 0 208 60.5t83 177.5v223q-115 -94 -291 -94q-182 0 -295 98t-113 258z" />
<glyph unicode="z" horiz-adv-x="1058" d="M119 59q0 16 10 33l637 932h-588q-25 0 -42 16.5t-17 41t17.5 42t41.5 17.5h699q27 0 43 -17.5t16 -42.5q0 -16 -10 -32l-637 -932h588q25 0 42 -16.5t17 -41t-17.5 -42t-41.5 -17.5h-699q-27 0 -43 17t-16 42z" />
<glyph unicode="{" horiz-adv-x="980" d="M72 778.5q0 24.5 17 42t42 17.5q133 0 182 63q47 66 47 225v222q0 182 129 294.5t340 112.5q25 0 42.5 -17.5t17.5 -42t-17.5 -42t-42.5 -17.5q-158 0 -251 -75q-98 -78 -99 -213v-222q0 -258 -127 -348q127 -90 127 -348v-258q0 -135 99 -213q94 -76 251 -76 q25 0 42.5 -17.5t17.5 -42t-17.5 -42t-42.5 -17.5q-211 0 -340 113t-129 295v258q0 162 -47 223q-47 66 -182 66q-25 0 -42 17.5t-17 42z" />
<glyph unicode="|" horiz-adv-x="710" d="M297 -55v1757q0 25 17.5 42t42 17t41 -17.5t16.5 -41.5v-1757q0 -25 -16.5 -42.5t-41 -17.5t-42 17.5t-17.5 42.5z" />
<glyph unicode="}" horiz-adv-x="980" d="M92 -176.5q0 24.5 17.5 42t42.5 17.5q158 0 251 76q98 78 99 213v258q0 258 127 348q-127 90 -127 348v222q0 135 -99 213q-94 76 -251 75q-25 0 -42.5 17.5t-17.5 42t17.5 42t42.5 17.5q211 0 340 -112.5t129 -294.5v-222q0 -162 47 -223q47 -66 182 -65q25 0 42 -17.5 t17 -42t-17.5 -42t-41.5 -17.5q-133 0 -182 -64q-47 -66 -47 -225v-258q0 -182 -129.5 -295t-339.5 -113q-25 0 -42.5 17.5t-17.5 42z" />
<glyph unicode="~" horiz-adv-x="901" d="M125 727q-2 25 14 43q45 55 115 74.5t139 -2.5l156 -54q74 -23 125 35q14 20 38.5 22.5t43.5 -14.5q20 -14 22 -38.5t-14 -42.5q-45 -55 -115.5 -75t-138.5 3l-156 53q-74 25 -125 -37q-16 -18 -39.5 -20t-44.5 12q-18 16 -20 41z" />
<glyph unicode="&#xa1;" horiz-adv-x="526" d="M205 47v1161q0 25 16.5 42.5t41 17.5t42 -17.5t17.5 -42.5v-1161q0 -25 -17.5 -42t-42 -17t-41 17t-16.5 42zM205 1475v114q0 25 16.5 42.5t41 17.5t42 -17.5t17.5 -42.5v-114q0 -25 -17.5 -42.5t-42 -17.5t-41 17.5t-16.5 42.5z" />
<glyph unicode="&#xa2;" horiz-adv-x="1087" d="M143 342v446q0 170 123 271q92 78 228 90v194q0 25 17 42.5t42 17.5t42 -17.5t17 -42.5v-194q133 -16 224.5 -94t113.5 -197q4 -25 -10 -44t-37 -23q-25 -4 -45 9t-22 38q-16 90 -94 144t-193 54q-119 0 -204 -63.5t-85 -184.5v-446q0 -109 80 -174q84 -63 209 -64 q106 0 188 48.5t99 148.5q4 23 23.5 37t43.5 12q23 -4 37 -23.5t12 -43.5q-20 -121 -111 -199t-229 -92v-176q0 -25 -17 -42.5t-42 -17.5t-42 17.5t-17 42.5v174q-160 16 -255.5 111.5t-95.5 240.5z" />
<glyph unicode="&#xa3;" horiz-adv-x="1398" d="M123 59q0 39 37 54q8 4 30 6q117 2 173.5 70.5t56.5 164.5v119v203h-238q-23 0 -40 17.5t-17 42t17.5 42t39.5 17.5h238v462q0 168 100 275q109 117 291 117q154 0 257 -84t128 -230v-10q0 -23 -14.5 -39t-34.5 -18q-23 -4 -43.5 10t-24.5 37q-16 102 -87.5 159.5 t-180.5 57.5q-141 0 -207.5 -81t-66.5 -194v-462h417q25 0 42.5 -17.5t17.5 -42t-17.5 -42t-42.5 -17.5h-417v-203v-119q0 -139 -80 -235h811q25 0 42 -17.5t17 -42t-17.5 -42t-41.5 -17.5h-1086q-25 0 -42 17t-17 42z" />
<glyph unicode="&#xa5;" horiz-adv-x="1144" d="M104 553q0 23 17.5 40t42.5 17h350v185h-350q-25 0 -42.5 17t-17.5 42t17.5 42t42.5 17h303l-356 648q-10 20 -3 44.5t27 34.5q23 12 45.5 6t34.5 -28l358 -653l359 653q10 20 34.5 27.5t45.5 -5.5q31 -16 30 -51q0 -14 -8 -28l-354 -648h303q25 0 42 -17t17 -42t-17 -42 t-42 -17h-350v-185h350q25 0 42 -17.5t17 -39.5q0 -25 -17 -42t-42 -17h-350v-447q0 -25 -17.5 -42t-42 -17t-42 17.5t-17.5 41.5v447h-350q-25 0 -42.5 17t-17.5 42z" />
<glyph unicode="&#xa6;" horiz-adv-x="567" d="M225 47v238q0 23 17.5 40t42.5 17q23 0 40 -17.5t17 -39.5v-238q0 -25 -17.5 -42t-39.5 -17q-25 0 -42.5 17t-17.5 42zM225 858v236q0 25 17.5 42t42.5 17q23 0 40 -17.5t17 -41.5v-236q0 -25 -17.5 -42t-39.5 -17q-25 0 -42.5 17t-17.5 42z" />
<glyph unicode="&#xa7;" horiz-adv-x="1073" d="M154 729q0 115 49 189.5t139 144.5q-145 113 -145 266q0 141 100 230.5t258 89.5q121 0 212 -57.5t126 -155.5q8 -23 -2 -44.5t-32.5 -29.5t-44 2t-32.5 33q-20 61 -81.5 97t-145.5 36q-100 0 -171 -51.5t-71 -149.5q0 -84 62.5 -140t197.5 -130q186 -98 266.5 -182 t80.5 -211q0 -117 -49.5 -192t-139.5 -144q145 -113 146 -267q0 -141 -100.5 -230t-258.5 -89q-121 0 -212 57.5t-126 155.5q-8 23 2.5 44.5t32.5 31.5q23 8 44.5 -3.5t31.5 -33.5q20 -61 81.5 -97t145.5 -36q100 0 171 51t71 149q0 84 -63.5 141.5t-196.5 129.5 q-186 98 -266 183t-80 212zM272 729q0 -82 58.5 -143.5t222.5 -147.5q25 -12 74 -41q66 49 95.5 78t54 78t24.5 113q0 82 -58.5 142t-222.5 148q-49 25 -74 39q-94 -72 -134 -124t-40 -142z" />
<glyph unicode="&#xa8;" horiz-adv-x="688" d="M102 1466v113q0 25 17.5 42t42.5 17q23 0 40 -17t17 -42v-113q0 -25 -17.5 -42t-39.5 -17q-25 0 -42.5 17t-17.5 42zM469 1464v115q0 23 17.5 40t41.5 17q23 0 40.5 -17t17.5 -40v-115q0 -25 -17.5 -42t-40.5 -17q-25 0 -42 17t-17 42z" />
<glyph unicode="&#xa9;" horiz-adv-x="1847" d="M92 819q0 340 246 585t586 245t585.5 -245t245.5 -585t-245.5 -585.5t-585.5 -245.5t-586 245.5t-246 585.5zM211 819q0 -291 211 -502t501.5 -211t501.5 211t211 502t-211 501t-501.5 210t-501.5 -210t-211 -501zM627 584v495q0 123 92 197q82 63 205 63t204 -63 q92 -74 93 -197q0 -25 -16.5 -42t-41 -17t-42 17.5t-17.5 41.5q0 72 -53.5 108t-127 36t-127 -36t-53.5 -108v-495q0 -74 53.5 -109t127 -35t127 35t53.5 109q0 25 17.5 42t42 17t41 -17.5t16.5 -41.5q0 -125 -93 -197q-82 -66 -204.5 -65.5t-204.5 65.5q-92 72 -92 197z " />
<glyph unicode="&#xaa;" horiz-adv-x="776" d="M102 887q0 102 75 174t245 72h53v73q0 143 -139 144q-66 0 -184 -29l-15 76q131 66 248 65q227 0 227 -229v-539h-110l-15 92q-102 -102 -211 -102q-76 0 -125 53.5t-49 149.5zM111 432v119h514v-119h-514zM242 920q0 -47 21.5 -77t58.5 -30q74 0 161 66v155h-84 q-157 1 -157 -114z" />
<glyph unicode="&#xab;" horiz-adv-x="1118" d="M125 696.5q0 24.5 16 40.5l400 400q16 16 40.5 16t41.5 -16q41 -43 0 -84l-357 -357l357 -356q41 -41 0 -84q-16 -16 -41 -16t-41 16l-400 399q-16 17 -16 41.5zM479 696.5q0 24.5 17 40.5l399 400q16 16 41 16t41 -16q18 -18 18 -42t-18 -42l-356 -357l356 -356 q18 -18 18 -42t-18 -42q-16 -16 -41 -16t-41 16l-399 399q-17 17 -17 41.5z" />
<glyph unicode="&#xac;" horiz-adv-x="1030" d="M41 854q0 23 17.5 40t41.5 17h832q25 0 41 -17t16 -40v-254q0 -25 -16.5 -42t-41 -17t-42 17t-17.5 42v195h-772q-25 0 -42 17t-17 42z" />
<glyph unicode="&#xad;" horiz-adv-x="684" d="M113 819.5q0 24.5 17 42t42 17.5h340q25 0 42 -17.5t17 -42t-17 -42t-42 -17.5h-340q-25 0 -42 17.5t-17 42z" />
<glyph unicode="&#xae;" horiz-adv-x="1826" d="M92 819q0 340 246 585t586 245t585.5 -245t245.5 -585t-245.5 -585.5t-585.5 -245.5t-586 245.5t-246 585.5zM211 819q0 -291 211 -502t501.5 -211t501.5 211t211 502t-211 501t-501.5 210t-501.5 -210t-211 -501zM676 379v887q0 25 17.5 42t41.5 17h240q121 0 194 -90 q61 -80 62 -201q0 -123 -62 -203q-45 -55 -108 -75l166 -353q10 -20 1 -43.5t-30 -33.5q-23 -10 -45.5 -2t-32.5 30l-182 387h-143v-362q0 -25 -17.5 -42.5t-42 -17.5t-42 17.5t-17.5 42.5zM795 860h180q72 0 105.5 51.5t33.5 123t-33.5 121.5t-105.5 50h-180v-346z" />
<glyph unicode="&#xaf;" horiz-adv-x="935" d="M92 1577q0 25 17.5 42t42.5 17h632q25 0 42.5 -17t17.5 -42t-17.5 -42t-42.5 -17h-632q-25 0 -42.5 17t-17.5 42z" />
<glyph unicode="&#x2c9;" horiz-adv-x="935" d="M92 1577q0 25 17.5 42t42.5 17h632q25 0 42.5 -17t17.5 -42t-17.5 -42t-42.5 -17h-632q-25 0 -42.5 17t-17.5 42z" />
<glyph unicode="&#xb0;" horiz-adv-x="772" d="M72 1335q0 129 92 221.5t223 92.5q129 0 221 -92.5t92 -221.5q0 -131 -92 -223t-221 -92q-131 0 -223 92t-92 223zM176 1335q0 -88 61.5 -149.5t149.5 -61.5t149.5 61.5t61.5 149.5q0 86 -61.5 148.5t-149.5 62.5t-149.5 -62.5t-61.5 -148.5z" />
<glyph unicode="&#xb1;" horiz-adv-x="1110" d="M113 59.5q0 24.5 17 42t42 17.5h766q25 0 42 -17.5t17 -42t-17 -42t-42 -17.5h-766q-25 0 -42 17.5t-17 42zM113 710.5q0 24.5 17 42t42 17.5h324v324q0 25 17 42t42 17t41 -17.5t16 -41.5v-324h326q25 0 42 -17.5t17 -42t-17 -42t-42 -17.5h-326v-323q0 -25 -16 -42.5 t-41 -17.5t-42 17.5t-17 42.5v323h-324q-25 0 -42 17.5t-17 42z" />
<glyph unicode="&#xb2;" horiz-adv-x="1200" d="M121 31q-16 33 2 61l524 721q78 104 117 158.5t84 142.5t45 148q0 119 -88 190q-102 80 -230 80q-111 0 -199.5 -49t-111.5 -152q-6 -23 -26.5 -36t-42.5 -9q-25 6 -38.5 26.5t-6.5 45.5q31 141 153 219q115 72 272 72q195 0 315 -108.5t120 -278.5q0 -25 -5.5 -51.5 t-11.5 -49t-19 -54.5t-22.5 -51.5t-31 -54t-31.5 -51t-37 -54.5t-36 -51.5t-40 -53t-37 -50.5q-227 -311 -397 -546l-57 -78h733q25 0 42 -16.5t17 -41t-17.5 -42t-41.5 -17.5h-846q-35 0 -51 31z" />
<glyph unicode="&#xb3;" horiz-adv-x="1163" d="M109 272q-8 20 1 44t31.5 32t45 -2t30.5 -33q39 -100 124 -154.5t206 -54.5q168 0 264 103q90 94 90 264q0 156 -90 250q-92 102 -264 102q-25 0 -42.5 17.5t-17.5 40.5q0 25 17.5 42t42.5 17q141 0 219 84q72 78 72 223q0 123 -72 201q-80 84 -219 84 q-109 0 -181.5 -53.5t-97.5 -147.5q-8 -23 -28.5 -35t-44.5 -6q-23 6 -36.5 28.5t-4.5 43.5q35 133 139 210t254 77q188 0 303 -121q106 -113 106 -281q0 -193 -106 -303q-25 -31 -66 -57q61 -29 113 -84q123 -129 123 -332q0 -215 -123 -344q-129 -139 -350 -139 q-158 0 -272.5 74.5t-165.5 209.5z" />
<glyph unicode="&#xb4;" horiz-adv-x="684" d="M76 1433.5q-8 22.5 4 45t35 28.5l420 129q23 8 44 -4t29 -35q6 -23 -5 -44t-34 -27l-419 -131q-23 -6 -44.5 5t-29.5 33.5z" />
<glyph unicode="&#xb5;" horiz-adv-x="851" d="M106 -354v1370h152v-543q0 -176 30.5 -269t117.5 -93q104 0 194 110v795h154v-1016h-127l-17 115q-53 -57 -123.5 -94t-128.5 -37q-68 0 -100 32v-370h-152z" />
<glyph unicode="&#x3bc;" horiz-adv-x="851" d="M106 -354v1370h152v-543q0 -176 30.5 -269t117.5 -93q104 0 194 110v795h154v-1016h-127l-17 115q-53 -57 -123.5 -94t-128.5 -37q-68 0 -100 32v-370h-152z" />
<glyph unicode="&#xb6;" horiz-adv-x="978" d="M113 1390.5q0 102.5 72.5 174t174.5 71.5h355q25 0 42 -17t17 -42v-1632q0 -25 -17.5 -42.5t-42 -17.5t-42 17.5t-17.5 42.5v1573h-112v-1573q0 -25 -16.5 -42.5t-41 -17.5t-42 17.5t-17.5 42.5v1196h-66q-102 0 -174.5 73.5t-72.5 176z" />
<glyph unicode="&#xb7;" horiz-adv-x="643" d="M154 985q0 70 49 119t118.5 49t118.5 -49t49 -119t-49 -119t-118.5 -49t-118.5 49t-49 119z" />
<glyph unicode="&#x2219;" horiz-adv-x="643" d="M154 985q0 70 49 119t118.5 49t118.5 -49t49 -119t-49 -119t-118.5 -49t-118.5 49t-49 119z" />
<glyph unicode="&#xb8;" horiz-adv-x="522" d="M82 -225q0 20 14.5 35.5t37 15.5t36.5 -15.5t14 -35.5q0 -31 22.5 -53.5t53.5 -22.5q33 0 55.5 22.5t22.5 53.5q0 33 -22.5 55.5t-55.5 22.5q-23 0 -37 14t-14 37v188q0 23 15.5 38t35.5 15q23 0 38 -15t15 -38v-145q55 -16 91 -63.5t36 -108.5q0 -74 -52 -127.5 t-128 -53.5q-74 0 -126 53.5t-52 127.5z" />
<glyph unicode="&#xb9;" horiz-adv-x="864" d="M133 1179.5q0 24.5 16.5 42t40.5 17.5q137 0 213 98q76 94 76 252q0 25 17.5 42.5t42 17.5t42 -17.5t17.5 -42.5v-1542q0 -25 -17.5 -42t-42 -17t-42 17.5t-17.5 41.5v1196q-111 -123 -289 -123q-25 0 -41 17.5t-16 42z" />
<glyph unicode="&#xba;" horiz-adv-x="751" d="M72 1063q0 195 82 298t223 103q135 0 211 -94t76 -276q0 -203 -82 -308.5t-224 -105.5q-286 0 -286 383zM113 432v119h514v-119h-514zM209 1081q0 -279 162 -278q66 0 110.5 63.5t44.5 200.5q0 147 -44 211.5t-111 64.5q-70 0 -116 -63.5t-46 -198.5z" />
<glyph unicode="&#xbb;" horiz-adv-x="1118" d="M123 298q0 24 18 42l357 356l-357 357q-18 18 -18 41.5t18 42.5q16 16 41 16t41 -16l400 -400q16 -16 16 -40.5t-16 -41.5l-400 -399q-16 -16 -40.5 -16t-41.5 16q-18 18 -18 42zM496 256q-41 43 0 84l356 356l-356 357q-41 41 0 84q16 16 40.5 16t41.5 -16l399 -400 q16 -16 16 -40.5t-16 -41.5l-399 -399q-16 -16 -41 -16t-41 16z" />
<glyph unicode="&#xbf;" horiz-adv-x="1124" d="M123 395q0 221 225 371q121 84 152.5 154.5t31.5 236.5v51q0 25 16.5 41.5t41.5 18.5q25 0 42 -17.5t17 -42.5l2 -49q0 -184 -51 -292.5t-186 -198.5q-86 -57 -129 -118t-43 -171q0 -121 98 -197q94 -76 254 -76q156 0 254 76q96 78 96 213q0 25 17.5 42.5t42 17.5 t42 -17.5t17.5 -42.5q0 -182 -129 -294.5t-340 -112.5t-341 112.5t-130 294.5zM532 1475v114q0 25 17.5 42.5t42 17.5t41 -17.5t16.5 -42.5v-114q0 -25 -16.5 -42.5t-41 -17.5t-42 17.5t-17.5 42.5z" />
<glyph unicode="&#xc0;" d="M76 63l456 1547q10 41 56 41q43 0 57 -41l457 -1549q6 -23 -6.5 -44t-34.5 -27q-23 -8 -44.5 4t-27.5 35l-123 413h-557q-72 -244 -121 -413q-6 -23 -27.5 -34t-45.5 -5q-23 8 -34 29t-5 44zM340 1939.5q8 22.5 29.5 34t44.5 4.5l420 -131q23 -6 34 -27.5t4 -43.5 q-8 -23 -29.5 -35t-43.5 -4l-420 129q-23 6 -35 28.5t-4 45zM344 561h487q-41 141 -130 441.5t-113 381.5q-144 -491 -244 -823z" />
<glyph unicode="&#xc1;" d="M76 63l456 1547q10 41 56 41q43 0 57 -41l457 -1549q6 -23 -6.5 -44t-34.5 -27q-23 -8 -44.5 4t-27.5 35l-123 413h-557q-72 -244 -121 -413q-6 -23 -27.5 -34t-45.5 -5q-23 8 -34 29t-5 44zM301 1775.5q-8 22.5 4 45t35 28.5l420 129q23 8 44 -4t30 -35q6 -23 -5.5 -44 t-33.5 -27l-420 -131q-23 -6 -44.5 5t-29.5 33.5zM344 561h487q-41 141 -130 441.5t-113 381.5q-144 -491 -244 -823z" />
<glyph unicode="&#xc2;" d="M76 63l456 1547q10 41 56 41q43 0 57 -41l457 -1549q6 -23 -6.5 -44t-34.5 -27q-23 -8 -44.5 4t-27.5 35l-123 413h-557q-72 -244 -121 -413q-6 -23 -27.5 -34t-45.5 -5q-23 8 -34 29t-5 44zM273.5 1791q5.5 24 25.5 38l258 168q33 25 64 0l258 -168q20 -14 25 -38 t-9 -44q-12 -20 -35.5 -25.5t-44.5 9.5l-227 147q-49 -33 -226 -147q-20 -14 -43.5 -9.5t-35.5 25.5q-15 20 -9.5 44zM344 561h487q-41 141 -130 441.5t-113 381.5q-144 -491 -244 -823z" />
<glyph unicode="&#xc3;" d="M76 63l456 1547q10 41 56 41q43 0 57 -41l457 -1549q6 -23 -6.5 -44t-34.5 -27q-23 -8 -44.5 4t-27.5 35l-123 413h-557q-72 -244 -121 -413q-6 -23 -27.5 -34t-45.5 -5q-23 8 -34 29t-5 44zM285 1785.5q-2 24.5 14 43.5q45 55 114.5 74.5t139.5 -2.5l156 -54 q74 -23 125 35q14 20 38.5 22.5t42.5 -14.5q20 -14 22.5 -38.5t-13.5 -43.5q-45 -55 -116 -74.5t-138 3.5l-156 53q-74 25 -125 -37q-16 -18 -39.5 -20t-44.5 12q-18 16 -20 40.5zM344 561h487q-41 141 -130 441.5t-113 381.5q-144 -491 -244 -823z" />
<glyph unicode="&#xc4;" d="M76 63l456 1547q10 41 56 41q43 0 57 -41l457 -1549q6 -23 -6.5 -44t-34.5 -27q-23 -8 -44.5 4t-27.5 35l-123 413h-557q-72 -244 -121 -413q-6 -23 -27.5 -34t-45.5 -5q-23 8 -34 29t-5 44zM340 1810v113q0 25 17.5 42t41.5 17q23 0 40.5 -17t17.5 -42v-113 q0 -25 -17.5 -42t-40.5 -17q-25 0 -42 17t-17 42zM344 561h487q-41 141 -130 441.5t-113 381.5q-144 -491 -244 -823zM707 1810v115q0 23 17 40t42 17q23 0 40 -17t17 -40v-115q0 -25 -17.5 -42t-39.5 -17q-25 0 -42 17t-17 42z" />
<glyph unicode="&#xc5;" d="M76 63l456 1547q10 41 56 41q43 0 57 -41l457 -1549q6 -23 -6.5 -44t-34.5 -27q-23 -8 -44.5 4t-27.5 35l-123 413h-557q-72 -244 -121 -413q-6 -23 -27.5 -34t-45.5 -5q-23 8 -34 29t-5 44zM344 561h487q-41 141 -130 441.5t-113 381.5q-144 -491 -244 -823zM385 1905 q0 84 59.5 144t143.5 60t144.5 -60t60.5 -144t-60.5 -143.5t-144.5 -59.5t-143.5 59.5t-59.5 143.5zM477 1905q0 -45 33 -77t78 -32t77.5 32t32.5 77t-31.5 77.5t-78.5 32.5q-45 0 -78 -32.5t-33 -77.5z" />
<glyph unicode="&#xc6;" horiz-adv-x="1943" d="M78 68l594 1531q14 37 55 37h1038q25 0 42.5 -17t17.5 -42t-17.5 -42t-42.5 -17h-667v-578h614q25 0 42.5 -17.5t17.5 -42t-17.5 -41t-42.5 -16.5h-614v-704h684q25 0 42 -17.5t17 -42t-17.5 -42t-41.5 -17.5h-744q-25 0 -41 17.5t-16 41.5v428h-12h-600l-181 -462 q-10 -23 -32.5 -32t-44.5 -1q-23 10 -32 31.5t-1 44.5zM414 604h555h12v914h-215z" />
<glyph unicode="&#xc7;" horiz-adv-x="1216" d="M174 1243q0 182 129 294t340 112t340 -112t129 -294q0 -25 -17.5 -42t-41.5 -17q-23 0 -40.5 17.5t-17.5 41.5q0 133 -98 211q-94 76 -254 76q-156 0 -254 -76q-96 -78 -96 -211l2 -848q0 -135 96 -213q98 -76 254 -76q160 0 254 76q98 76 98 213q0 23 17.5 40.5 t40.5 17.5q25 0 42 -17.5t17 -40.5q0 -174 -116.5 -284.5t-311.5 -122.5l-2 -74q55 -16 91 -63.5t36 -108.5q0 -74 -52 -127t-128 -53q-74 0 -126 53t-52 127q0 20 15 35.5t35.5 15.5t36 -15.5t15.5 -35.5q0 -31 22.5 -53.5t53.5 -22.5q33 0 55.5 22.5t22.5 53.5 q0 33 -22.5 55.5t-55.5 22.5q-20 0 -35.5 14t-15.5 37l2 119q-184 16 -295 126.5t-111 278.5z" />
<glyph unicode="&#xc8;" horiz-adv-x="1167" d="M205 59v1518q0 25 17.5 42t41.5 17h725q25 0 42.5 -17t17.5 -42t-17.5 -42t-42.5 -17h-665v-578h612q25 0 42 -17.5t17 -42t-17 -41t-42 -16.5h-612v-704h682q25 0 42 -17.5t17 -42t-17.5 -42t-41.5 -17.5h-742q-25 0 -42 17t-17 42zM366.5 1943.5q8.5 22.5 30 34 t43.5 4.5l420 -131q23 -6 34 -27.5t5 -43.5q-8 -23 -29.5 -35t-44.5 -4l-419 129q-23 6 -35.5 28.5t-4 45z" />
<glyph unicode="&#xc9;" horiz-adv-x="1167" d="M205 59v1518q0 25 17.5 42t41.5 17h725q25 0 42.5 -17t17.5 -42t-17.5 -42t-42.5 -17h-665v-578h612q25 0 42 -17.5t17 -42t-17 -41t-42 -16.5h-612v-704h682q25 0 42 -17.5t17 -42t-17.5 -42t-41.5 -17.5h-742q-25 0 -42 17t-17 42zM366.5 1771.5q-8.5 22.5 4 45 t35.5 28.5l419 129q23 8 44.5 -4t29.5 -35q6 -23 -5 -44t-34 -27l-420 -131q-23 -6 -44 5t-29.5 33.5z" />
<glyph unicode="&#xca;" horiz-adv-x="1169" d="M205 59v1518q0 25 17.5 42t41.5 17h725q25 0 42.5 -17t17.5 -42t-17.5 -42t-42.5 -17h-665v-578h612q25 0 42 -17.5t17 -42t-17 -41t-42 -16.5h-612v-704h682q25 0 42 -17.5t17 -42t-17.5 -42t-41.5 -17.5h-742q-25 0 -42 17t-17 42zM277.5 1791q5.5 24 25.5 38l258 168 q33 25 64 0l258 -168q20 -14 25 -38t-9 -44q-12 -20 -35.5 -25.5t-44.5 9.5l-227 147q-49 -33 -225 -147q-20 -14 -44 -9.5t-36 25.5q-15 20 -9.5 44z" />
<glyph unicode="&#xcb;" horiz-adv-x="1167" d="M205 59v1518q0 25 17.5 42t41.5 17h725q25 0 42.5 -17t17.5 -42t-17.5 -42t-42.5 -17h-665v-578h612q25 0 42 -17.5t17 -42t-17 -41t-42 -16.5h-612v-704h682q25 0 42 -17.5t17 -42t-17.5 -42t-41.5 -17.5h-742q-25 0 -42 17t-17 42zM387 1812v113q0 25 17.5 42.5 t41.5 17.5q23 0 40.5 -17.5t17.5 -42.5v-113q0 -25 -17.5 -42t-40.5 -17q-25 0 -42 17t-17 42zM754 1812v115q0 23 17 40.5t42 17.5q23 0 40 -17.5t17 -40.5v-115q0 -25 -17 -42t-40 -17q-25 0 -42 17t-17 42z" />
<glyph unicode="&#xcc;" horiz-adv-x="581" d="M24.5 1943.5q8.5 22.5 30 34t43.5 4.5l420 -131q23 -6 34 -27.5t5 -43.5q-8 -23 -29.5 -35t-44.5 -4l-420 129q-23 6 -35 28.5t-3.5 45zM231 47v1542q0 25 17.5 42.5t42 17.5t42 -17.5t17.5 -42.5v-1542q0 -25 -17.5 -42t-42 -17t-42 17t-17.5 42z" />
<glyph unicode="&#xcd;" horiz-adv-x="581" d="M24.5 1775.5q-8.5 22.5 4 45t34.5 28.5l420 129q23 8 44.5 -4t29.5 -35q6 -23 -5 -44t-34 -27l-420 -131q-23 -6 -44 5t-29.5 33.5zM231 47v1542q0 25 17.5 42.5t42 17.5t42 -17.5t17.5 -42.5v-1542q0 -25 -17.5 -42t-42 -17t-42 17t-17.5 42z" />
<glyph unicode="&#xce;" horiz-adv-x="673" d="M21.5 1791q5.5 24 25.5 38l258 168q31 25 64 0l258 -168q20 -14 25 -38t-9 -44q-12 -20 -35.5 -25.5t-44.5 9.5l-227 147q-49 -33 -225 -147q-20 -14 -44 -9.5t-36 25.5q-15 20 -9.5 44zM274 47v1542q0 25 17.5 42.5t42 17.5t42 -17.5t17.5 -42.5v-1542q0 -25 -17.5 -42 t-42 -17t-42 17t-17.5 42z" />
<glyph unicode="&#xcf;" horiz-adv-x="524" d="M20 1810v113q0 25 17.5 42t42.5 17q23 0 40 -17t17 -42v-113q0 -25 -17.5 -42t-39.5 -17q-25 0 -42.5 17t-17.5 42zM205 47v1542q0 25 17.5 42.5t42 17.5t42 -17.5t17.5 -42.5v-1542q0 -25 -17.5 -42t-42 -17t-42 17t-17.5 42zM387 1810v115q0 23 17.5 40t41.5 17 q23 0 40.5 -17t17.5 -40v-115q0 -25 -17.5 -42t-40.5 -17q-25 0 -42 17t-17 42z" />
<glyph unicode="&#xd1;" horiz-adv-x="1361" d="M205 47v1542q0 47 45 58q43 10 65 -29l723 -1337v1308q0 25 17.5 42.5t42 17.5t42 -17.5t17.5 -42.5v-1542q0 -47 -45 -57t-65 28l-723 1338v-1309q0 -25 -17.5 -42t-42 -17t-42 17t-17.5 42zM358 1785.5q-2 24.5 15 43.5q45 55 114.5 74.5t139.5 -2.5l155 -54 q74 -23 125 35q14 20 39 22.5t43 -14.5q20 -14 22.5 -38.5t-14.5 -43.5q-45 -55 -115.5 -74.5t-138.5 3.5l-155 53q-74 25 -125 -37q-16 -18 -40 -20t-44 12q-19 16 -21 40.5z" />
<glyph unicode="&#xd2;" horiz-adv-x="1245" d="M154 395v848q0 182 129 294t340 112t340 -112t129 -294v-848q0 -182 -129 -294.5t-340 -112.5t-340 112.5t-129 294.5zM272 395q0 -135 97 -213q98 -76 254 -76q160 0 254 76q98 76 98 213v748q-201 0 -329 102.5t-140 272.5q-80 -18 -137 -64q-96 -78 -97 -211v-848z M370.5 1943.5q8.5 22.5 30 34t43.5 4.5l420 -131q23 -6 34 -27.5t5 -43.5q-8 -23 -29.5 -35t-44.5 -4l-419 129q-23 6 -35.5 28.5t-4 45zM623 1530q6 -123 98 -193q94 -76 252 -75q-6 121 -96 192q-94 76 -254 76z" />
<glyph unicode="&#xd3;" horiz-adv-x="1245" d="M154 395v848q0 182 129 294t340 112t340 -112t129 -294v-848q0 -182 -129 -294.5t-340 -112.5t-340 112.5t-129 294.5zM272 395q0 -135 97 -213q98 -76 254 -76q160 0 254 76q98 76 98 213v748q-201 0 -329 102.5t-140 272.5q-80 -18 -137 -64q-96 -78 -97 -211v-848z M321.5 1775.5q-8.5 22.5 4 45t34.5 28.5l420 129q23 8 44.5 -4t29.5 -35q6 -23 -5 -44t-34 -27l-420 -131q-23 -6 -44 5t-29.5 33.5zM623 1530q6 -123 98 -193q94 -76 252 -75q-6 121 -96 192q-94 76 -254 76z" />
<glyph unicode="&#xd4;" horiz-adv-x="1245" d="M154 395v848q0 182 129 294t340 112t340 -112t129 -294v-848q0 -182 -129 -294.5t-340 -112.5t-340 112.5t-129 294.5zM272 395q0 -135 97 -213q98 -76 254 -76q160 0 254 76q98 76 98 213v748q-201 0 -329 102.5t-140 272.5q-80 -18 -137 -64q-96 -78 -97 -211v-848z M310 1791q5 24 26 38l258 168q33 25 63 0l258 -168q20 -14 25.5 -38t-8.5 -44q-12 -20 -36 -25.5t-44 9.5l-227 147q-49 -33 -226 -147q-20 -14 -43.5 -9.5t-36.5 25.5q-14 20 -9 44zM623 1530q6 -123 98 -193q94 -76 252 -75q-6 121 -96 192q-94 76 -254 76z" />
<glyph unicode="&#xd5;" horiz-adv-x="1245" d="M154 395v848q0 182 129 294t340 112t340 -112t129 -294v-848q0 -182 -129 -294.5t-340 -112.5t-340 112.5t-129 294.5zM272 395q0 -135 97 -213q98 -76 254 -76q160 0 254 76q98 76 98 213v748q-201 0 -329 102.5t-140 272.5q-80 -18 -137 -64q-96 -78 -97 -211v-848z M293 1785.5q-2 24.5 14 43.5q45 55 115 74.5t139 -2.5l156 -54q74 -23 125 35q14 20 38.5 22.5t43.5 -14.5q20 -14 22 -38.5t-14 -43.5q-45 -55 -116 -74.5t-138 3.5l-156 53q-74 25 -125 -37q-16 -18 -39.5 -20t-44.5 12q-18 16 -20 40.5zM623 1530q6 -123 98 -193 q94 -76 252 -75q-6 121 -96 192q-94 76 -254 76z" />
<glyph unicode="&#xd6;" horiz-adv-x="1245" d="M154 395v848q0 182 129 294t340 112t340 -112t129 -294v-848q0 -182 -129 -294.5t-340 -112.5t-340 112.5t-129 294.5zM272 395q0 -135 97 -213q98 -76 254 -76q160 0 254 76q98 76 98 213v748q-201 0 -329 102.5t-140 272.5q-80 -18 -137 -64q-96 -78 -97 -211v-848z M379 1812v113q0 25 17.5 42.5t41.5 17.5q23 0 40.5 -17.5t17.5 -42.5v-113q0 -25 -17.5 -42t-40.5 -17q-25 0 -42 17t-17 42zM623 1530q6 -123 98 -193q94 -76 252 -75q-6 121 -96 192q-94 76 -254 76zM745 1810v115q0 23 17.5 40t42.5 17q23 0 40 -17t17 -40v-115 q0 -25 -17.5 -42t-39.5 -17q-25 0 -42.5 17t-17.5 42z" />
<glyph unicode="&#xd7;" horiz-adv-x="950" d="M145 436.5q0 24.5 17 40.5l229 230l-229 229q-16 16 -16.5 40.5t16.5 43.5q18 16 42.5 16t41.5 -16l229 -229l230 229q16 16 40.5 16t42.5 -16q37 -41 -2 -84l-229 -227l231 -232q16 -16 16.5 -40.5t-16.5 -43.5q-18 -16 -42.5 -16t-40.5 16l-232 232l-227 -230 q-43 -39 -84 -2q-17 19 -17 43.5z" />
<glyph unicode="&#xd8;" horiz-adv-x="1277" d="M137 -66.5q-8 23.5 4 48.5l97 188q-66 96 -66 225v848q0 182 129 294t340 112q180 0 307 -88l82 161q29 49 82 27q20 -12 28.5 -35.5t-3.5 -48.5l-99 -192q72 -100 72 -230v-848q0 -182 -129 -294.5t-340 -112.5q-188 0 -311 88l-76 -152q-12 -23 -40 -30t-48 6 q-21 10 -29 33.5zM291 395q0 -135 96 -213q98 -76 254 -76q160 0 254 76q98 76 98 213v748q-201 0 -328.5 102.5t-140.5 272.5q-80 -18 -137 -64q-96 -78 -96 -211v-848zM641 1530q6 -123 98 -193q94 -76 252 -75q-6 121 -96 192q-94 76 -254 76z" />
<glyph unicode="&#xd9;" horiz-adv-x="1347" d="M205 395v1194q0 25 17.5 42.5t42 17.5t42 -17.5t17.5 -42.5v-1194q0 -135 96 -213q98 -76 254 -76q160 0 254 76q98 76 98 213v1194q0 25 17.5 42.5t39.5 17.5q25 0 42.5 -17.5t17.5 -42.5v-1194q0 -182 -129 -294.5t-340 -112.5t-340 112.5t-129 294.5zM403.5 1943.5 q8.5 22.5 30 34t43.5 4.5l420 -131q23 -6 34 -27.5t5 -43.5q-8 -23 -29.5 -35t-44.5 -4l-420 129q-23 6 -35 28.5t-3.5 45z" />
<glyph unicode="&#xda;" horiz-adv-x="1347" d="M205 395v1194q0 25 17.5 42.5t42 17.5t42 -17.5t17.5 -42.5v-1194q0 -135 96 -213q98 -76 254 -76q160 0 254 76q98 76 98 213v1194q0 25 17.5 42.5t39.5 17.5q25 0 42.5 -17.5t17.5 -42.5v-1194q0 -182 -129 -294.5t-340 -112.5t-340 112.5t-129 294.5zM403.5 1775.5 q-8.5 22.5 4 45t34.5 28.5l420 129q23 8 44.5 -4t29.5 -35q6 -23 -5 -44t-34 -27l-420 -131q-23 -6 -44 5t-29.5 33.5z" />
<glyph unicode="&#xdb;" horiz-adv-x="1347" d="M205 395v1194q0 25 17.5 42.5t42 17.5t42 -17.5t17.5 -42.5v-1194q0 -135 96 -213q98 -76 254 -76q160 0 254 76q98 76 98 213v1194q0 25 17.5 42.5t39.5 17.5q25 0 42.5 -17.5t17.5 -42.5v-1194q0 -182 -129 -294.5t-340 -112.5t-340 112.5t-129 294.5zM361.5 1791 q5.5 24 25.5 38l258 168q31 25 64 0l258 -168q20 -14 25 -38t-9 -44q-12 -20 -35.5 -25.5t-44.5 9.5l-227 147q-49 -33 -225 -147q-20 -14 -44 -9.5t-36 25.5q-15 20 -9.5 44z" />
<glyph unicode="&#xdc;" horiz-adv-x="1347" d="M205 395v1194q0 25 17.5 42.5t42 17.5t42 -17.5t17.5 -42.5v-1194q0 -135 96 -213q98 -76 254 -76q160 0 254 76q98 76 98 213v1194q0 25 17.5 42.5t39.5 17.5q25 0 42.5 -17.5t17.5 -42.5v-1194q0 -182 -129 -294.5t-340 -112.5t-340 112.5t-129 294.5zM446 1812v113 q0 25 17.5 42.5t42.5 17.5q23 0 40 -17.5t17 -42.5v-113q0 -25 -17.5 -42t-39.5 -17q-25 0 -42.5 17t-17.5 42zM813 1810v115q0 23 17.5 40t41.5 17q23 0 40.5 -17t17.5 -40v-115q0 -25 -17.5 -42t-40.5 -17q-25 0 -42 17t-17 42z" />
<glyph unicode="&#xdd;" horiz-adv-x="1193" d="M174 856v733q0 25 17.5 42.5t42 17.5t41 -17.5t16.5 -42.5v-733q0 -113 80 -174q80 -63 211 -63.5t211 63.5q80 61 79 174v733q0 25 17.5 42.5t40.5 17.5q25 0 42 -17.5t17 -42.5v-1247q0 -158 -112.5 -256t-294.5 -98q-162 0 -272.5 79.5t-131.5 213.5q-4 25 10.5 45 t38.5 22q25 4 44.5 -10t23.5 -39q16 -98 99 -146.5t188 -48.5q131 0 211 64q80 66 79 174v252q-115 -94 -290 -94q-182 0 -295 98t-113 258zM317.5 1777.5q-8.5 22.5 4 45t34.5 28.5l420 129q23 8 44.5 -4t29.5 -34q6 -23 -5 -44.5t-34 -27.5l-420 -131q-23 -6 -44 5 t-29.5 33.5z" />
<glyph unicode="&#xdf;" horiz-adv-x="1173" d="M164 -55v1296q0 176 106 287q115 121 305.5 121t305.5 -121q106 -111 106 -287q0 -186 -106 -297q-25 -31 -66 -57q59 -29 115 -84q121 -131 121 -332q0 -213 -121 -344q-133 -139 -355 -139q-25 0 -42 17.5t-17 42t17.5 41.5t41.5 17q168 0 263.5 98.5t95.5 266.5 q0 152 -94.5 252t-243.5 100h-21q-23 0 -41 16.5t-18 39.5q0 27 16.5 45t42.5 18h19q125 0 203 82q74 80 73 217q0 133 -79.5 211t-215 78t-214 -78t-78.5 -211v-1296q0 -25 -17.5 -42.5t-42 -17.5t-42 17.5t-17.5 42.5z" />
<glyph unicode="&#xe0;" horiz-adv-x="1181" d="M143 342v444q0 166 123 271q115 96 285 96t285 -96q123 -104 122 -271v-499q0 -76 35 -128.5t111 -52.5q25 0 41 -17t16 -41.5t-16.5 -42t-40.5 -17.5q-129 0 -199 92q-14 16 -26 39q-111 -131 -328 -131q-182 0 -295 98t-113 256zM262 342q0 -113 78 -174 q82 -63 211 -63.5t209 63.5q80 61 80 174v444q0 121 -85 185.5t-204 64.5t-204 -64.5t-85 -185.5v-444zM268 1601.5q8 22.5 29.5 34t44.5 4.5l420 -131q23 -6 34 -27.5t5 -43.5q-8 -23 -29.5 -35t-44.5 -4l-420 129q-23 6 -35 28.5t-4 45z" />
<glyph unicode="&#xe1;" horiz-adv-x="1181" d="M143 342v444q0 166 123 271q115 96 285 96t285 -96q123 -104 122 -271v-499q0 -76 35 -128.5t111 -52.5q25 0 41 -17t16 -41.5t-16.5 -42t-40.5 -17.5q-129 0 -199 92q-14 16 -26 39q-111 -131 -328 -131q-182 0 -295 98t-113 256zM262 342q0 -113 78 -174 q82 -63 211 -63.5t209 63.5q80 61 80 174v444q0 121 -85 185.5t-204 64.5t-204 -64.5t-85 -185.5v-444zM268 1433.5q-8 22.5 4.5 45t34.5 28.5l420 129q23 8 44.5 -4t29.5 -35q6 -23 -5.5 -44t-33.5 -27l-420 -131q-23 -6 -44.5 5t-29.5 33.5z" />
<glyph unicode="&#xe2;" horiz-adv-x="1181" d="M143 342v444q0 166 123 271q115 96 285 96t285 -96q123 -104 122 -271v-499q0 -76 35 -128.5t111 -52.5q25 0 41 -17t16 -41.5t-16.5 -42t-40.5 -17.5q-129 0 -199 92q-14 16 -26 39q-111 -131 -328 -131q-182 0 -295 98t-113 256zM259 1420.5q5 23.5 26 37.5l258 168 q31 25 63 0l258 -168q20 -14 25.5 -37.5t-8.5 -44.5q-12 -20 -36 -25t-44 9l-228 147q-49 -33 -225 -147q-20 -14 -43.5 -9t-36.5 25q-14 21 -9 44.5zM262 342q0 -113 78 -174q82 -63 211 -63.5t209 63.5q80 61 80 174v444q0 121 -85 185.5t-204 64.5t-204 -64.5t-85 -185.5 v-444z" />
<glyph unicode="&#xe3;" horiz-adv-x="1181" d="M143 342v444q0 166 123 271q115 96 285 96t285 -96q123 -104 122 -271v-499q0 -76 35 -128.5t111 -52.5q25 0 41 -17t16 -41.5t-16.5 -42t-40.5 -17.5q-129 0 -199 92q-14 16 -26 39q-111 -131 -328 -131q-182 0 -295 98t-113 256zM246 1505.5q-2 24.5 14 42.5 q45 55 114.5 74.5t139.5 -2.5l156 -53q74 -23 125 35q14 20 38.5 22t43.5 -14q20 -14 22 -39t-14 -43q-45 -55 -116 -74.5t-138 2.5l-156 53q-74 25 -125 -36q-16 -18 -39.5 -20.5t-44.5 11.5q-18 17 -20 41.5zM262 342q0 -113 78 -174q82 -63 211 -63.5t209 63.5 q80 61 80 174v444q0 121 -85 185.5t-204 64.5t-204 -64.5t-85 -185.5v-444z" />
<glyph unicode="&#xe4;" horiz-adv-x="1181" d="M143 342v444q0 166 123 271q115 96 285 96t285 -96q123 -104 122 -271v-499q0 -76 35 -128.5t111 -52.5q25 0 41 -17t16 -41.5t-16.5 -42t-40.5 -17.5q-129 0 -199 92q-14 16 -26 39q-111 -131 -328 -131q-182 0 -295 98t-113 256zM262 342q0 -113 78 -174 q82 -63 211 -63.5t209 63.5q80 61 80 174v444q0 121 -85 185.5t-204 64.5t-204 -64.5t-85 -185.5v-444zM311 1464v113q0 25 17.5 42t42.5 17q23 0 40 -17t17 -42v-113q0 -25 -17.5 -42t-39.5 -17q-25 0 -42.5 17t-17.5 42zM678 1462v115q0 23 17.5 40t41.5 17 q23 0 40.5 -17.5t17.5 -39.5v-115q0 -25 -17.5 -42t-40.5 -17q-25 0 -42 17t-17 42z" />
<glyph unicode="&#xe5;" horiz-adv-x="1181" d="M143 342v444q0 166 123 271q115 96 285 96t285 -96q123 -104 122 -271v-499q0 -76 35 -128.5t111 -52.5q25 0 41 -17t16 -41.5t-16.5 -42t-40.5 -17.5q-129 0 -199 92q-14 16 -26 39q-111 -131 -328 -131q-182 0 -295 98t-113 256zM262 342q0 -113 78 -174 q82 -63 211 -63.5t209 63.5q80 61 80 174v444q0 121 -85 185.5t-204 64.5t-204 -64.5t-85 -185.5v-444zM346 1432q0 84 59.5 144t143.5 60t144.5 -60t60.5 -144t-60.5 -143.5t-144.5 -59.5t-143.5 59.5t-59.5 143.5zM438 1431.5q0 -45.5 33 -77t78 -31.5t77.5 31.5 t32.5 77.5q0 47 -32.5 78.5t-77.5 31.5t-78 -32.5t-33 -78z" />
<glyph unicode="&#xe6;" horiz-adv-x="1705" d="M143 315.5q0 151.5 96.5 244.5t270.5 108l260 22v144q0 98 -70.5 150t-169.5 52q-84 0 -145 -35.5t-82 -99.5q-8 -23 -30.5 -33t-45 -2t-33 31t-1.5 45q35 96 126 153.5t211 57.5q213 0 310 -152q29 35 53 56q113 94 285 94q170 0 282 -94q123 -100 123 -271v-151 q0 -49 -47 -60l-649 -122v-111q0 -117 83 -177.5t208 -60.5q104 0 186 47.5t98 147.5q4 25 23.5 39t44.5 10q25 -2 39 -22.5t10 -42.5q-20 -135 -130 -215t-271 -80q-233 0 -344 147q-41 -76 -136.5 -112.5t-181.5 -36.5q-158 0 -265.5 89t-107.5 240.5zM262 315 q0 -106 75 -159.5t179 -53.5q37 0 73 7.5t81 29t72.5 70.5t27.5 121v241l-252 -20q-256 -21 -256 -236zM887 573q231 41 579 109v104q0 121 -85 184.5t-203 63.5q-121 0 -206 -63.5t-85 -184.5v-213z" />
<glyph unicode="&#xe7;" horiz-adv-x="1087" d="M143 344v444q0 170 123 271q113 94 283 94q156 0 266.5 -81t134.5 -214q4 -25 -10 -44t-37 -23q-25 -4 -45 9t-22 38q-16 90 -94 144t-193 54q-119 0 -204 -63.5t-85 -184.5v-444q0 -111 80 -174q84 -63 209 -64q106 0 188 48.5t99 148.5q4 23 23.5 37t43.5 12 q23 -4 37 -23.5t12 -43.5q-20 -125 -118.5 -204t-243.5 -89v-78q55 -16 91 -63.5t36 -108.5q0 -74 -52.5 -127t-127.5 -53q-74 0 -126.5 53t-52.5 127q0 20 15.5 35.5t36 15.5t36 -15.5t15.5 -35.5q0 -31 22.5 -53.5t53.5 -22.5q33 0 55 22.5t22 53.5q0 33 -22.5 55.5 t-54.5 22.5q-20 0 -36 14t-16 37v121q-156 16 -249 112.5t-93 239.5z" />
<glyph unicode="&#xe8;" horiz-adv-x="1079" d="M143 340v448q0 170 123 271q113 94 283 94q172 0 285 -94q123 -100 122 -271v-139q0 -49 -47 -57l-649 -123v-129q0 -111 80 -174q80 -61 209 -62q106 0 188 47.5t99 147.5q4 23 23.5 37t43.5 12q23 -4 37 -23.5t12 -43.5q-23 -133 -132 -213t-271 -80q-182 0 -294 97 t-112 255zM260 588q49 8 295 55t285 53v92q0 121 -85 184.5t-206 63.5q-119 0 -204 -63.5t-85 -184.5v-200zM293 1601.5q8 22.5 29.5 34t44.5 4.5l419 -131q23 -6 34 -27.5t5 -43.5q-8 -23 -29.5 -35t-43.5 -4l-420 129q-23 6 -35 28.5t-4 45z" />
<glyph unicode="&#xe9;" horiz-adv-x="1079" d="M143 340v448q0 170 123 271q113 94 283 94q172 0 285 -94q123 -100 122 -271v-139q0 -49 -47 -57l-649 -123v-129q0 -111 80 -174q80 -61 209 -62q106 0 188 47.5t99 147.5q4 23 23.5 37t43.5 12q23 -4 37 -23.5t12 -43.5q-23 -133 -132 -213t-271 -80q-182 0 -294 97 t-112 255zM260 588q49 8 295 55t285 53v92q0 121 -85 184.5t-206 63.5q-119 0 -204 -63.5t-85 -184.5v-200zM276.5 1433.5q-8.5 22.5 4 45t34.5 28.5l420 129q23 8 44.5 -4t29.5 -35q6 -23 -5 -44t-34 -27l-420 -131q-23 -6 -44 5t-29.5 33.5z" />
<glyph unicode="&#xea;" horiz-adv-x="1079" d="M143 340v448q0 170 123 271q113 94 283 94q172 0 285 -94q123 -100 122 -271v-139q0 -49 -47 -57l-649 -123v-129q0 -111 80 -174q80 -61 209 -62q106 0 188 47.5t99 147.5q4 23 23.5 37t43.5 12q23 -4 37 -23.5t12 -43.5q-23 -133 -132 -213t-271 -80q-182 0 -294 97 t-112 255zM236.5 1420.5q5.5 23.5 25.5 37.5l258 168q33 25 64 0l258 -168q20 -14 25 -37.5t-9 -44.5q-12 -20 -35.5 -25t-44.5 9l-227 147q-49 -33 -225 -147q-20 -14 -44 -9t-36 25q-15 21 -9.5 44.5zM260 588q49 8 295 55t285 53v92q0 121 -85 184.5t-206 63.5 q-119 0 -204 -63.5t-85 -184.5v-200z" />
<glyph unicode="&#xeb;" horiz-adv-x="1079" d="M143 340v448q0 170 123 271q113 94 283 94q172 0 285 -94q123 -100 122 -271v-139q0 -49 -47 -57l-649 -123v-129q0 -111 80 -174q80 -61 209 -62q106 0 188 47.5t99 147.5q4 23 23.5 37t43.5 12q23 -4 37 -23.5t12 -43.5q-23 -133 -132 -213t-271 -80q-182 0 -294 97 t-112 255zM260 588q49 8 295 55t285 53v92q0 121 -85 184.5t-206 63.5q-119 0 -204 -63.5t-85 -184.5v-200zM303 1464v113q0 25 17.5 42t41.5 17q23 0 40.5 -17t17.5 -42v-113q0 -25 -17.5 -42t-40.5 -17q-25 0 -42 17t-17 42zM670 1462v115q0 23 17.5 40t41.5 17 q23 0 40 -17.5t17 -39.5v-115q0 -25 -17 -42t-40 -17q-25 0 -42 17t-17 42z" />
<glyph unicode="&#xec;" horiz-adv-x="581" d="M24.5 1601.5q8.5 22.5 30 34t43.5 4.5l420 -131q23 -6 34 -27.5t5 -43.5q-8 -23 -29.5 -35t-44.5 -4l-420 129q-23 6 -35 28.5t-3.5 45zM231 47v1047q0 25 17.5 42t42 17t41 -17.5t16.5 -41.5v-1047q0 -25 -16.5 -42t-41 -17t-42 17t-17.5 42z" />
<glyph unicode="&#xed;" horiz-adv-x="581" d="M24.5 1433.5q-8.5 22.5 4 45t34.5 28.5l420 129q23 8 44.5 -4t29.5 -35q6 -23 -5 -44t-34 -27l-420 -131q-23 -6 -44 5t-29.5 33.5zM231 47v1047q0 25 17.5 42t42 17t41 -17.5t16.5 -41.5v-1047q0 -25 -16.5 -42t-41 -17t-42 17t-17.5 42z" />
<glyph unicode="&#xee;" horiz-adv-x="673" d="M21.5 1420.5q5.5 23.5 25.5 37.5l258 168q31 25 64 0l258 -168q20 -14 25 -37.5t-9 -44.5q-12 -20 -35.5 -25t-44.5 9l-227 147q-49 -33 -225 -147q-20 -14 -44 -9t-36 25q-15 21 -9.5 44.5zM281 47v1047q0 25 17 42t42 17t41 -17.5t16 -41.5v-1047q0 -25 -16 -42 t-41 -17t-42 17t-17 42z" />
<glyph unicode="&#xef;" horiz-adv-x="524" d="M20 1464v113q0 25 17.5 42t42.5 17q23 0 40 -17t17 -42v-113q0 -25 -17.5 -42t-39.5 -17q-25 0 -42.5 17t-17.5 42zM203 47v1047q0 25 17.5 42t42 17t40.5 -17.5t16 -41.5v-1047q0 -25 -16 -42t-40.5 -17t-42 17t-17.5 42zM387 1462v115q0 23 17.5 40t41.5 17 q23 0 40.5 -17.5t17.5 -39.5v-115q0 -25 -17.5 -42t-40.5 -17q-25 0 -42 17t-17 42z" />
<glyph unicode="&#xf1;" horiz-adv-x="1138" d="M174 47v1047q0 25 17.5 42t42 17t42 -17.5t17.5 -41.5v-41q106 100 291 100q164 0 282 -98q125 -106 125 -269v-739q0 -25 -17.5 -42t-41.5 -17q-23 0 -40.5 17.5t-17.5 41.5v739q0 121 -86 185.5t-204.5 64.5t-204.5 -64.5t-86 -185.5v-739q0 -25 -17.5 -42t-42 -17 t-42 17t-17.5 42zM248 1505.5q-2 24.5 14 42.5q45 55 114.5 74.5t139.5 -2.5l156 -53q74 -23 125 35q14 20 38.5 22t43.5 -14q20 -14 22 -39t-14 -43q-45 -55 -116 -74.5t-138 2.5l-156 53q-74 25 -125 -36q-16 -18 -39.5 -20.5t-44.5 11.5q-18 17 -20 41.5z" />
<glyph unicode="&#xf2;" horiz-adv-x="1103" d="M143 342v444q0 166 123 271q115 96 287 96q170 0 285 -96q123 -100 123 -271v-444q0 -158 -113 -256t-295 -98q-184 0 -297 98t-113 256zM262 342q0 -109 80 -174q80 -63 211 -64q129 0 211 64q80 66 80 174v338q-178 0 -290 92t-120 244q-78 -25 -125 -83.5t-47 -146.5 v-444zM287 1601.5q8 22.5 29.5 34t43.5 4.5l420 -131q23 -6 34 -27.5t5 -43.5q-8 -23 -29.5 -35t-44.5 -4l-419 129q-23 6 -35 28.5t-4 45zM553 1034q0 -109 80 -174q80 -63 211 -63q-6 115 -90 176t-201 61z" />
<glyph unicode="&#xf3;" horiz-adv-x="1103" d="M143 342v444q0 166 123 271q115 96 287 96q170 0 285 -96q123 -100 123 -271v-444q0 -158 -113 -256t-295 -98q-184 0 -297 98t-113 256zM262 342q0 -109 80 -174q80 -63 211 -64q129 0 211 64q80 66 80 174v338q-178 0 -290 92t-120 244q-78 -25 -125 -83.5t-47 -146.5 v-444zM282.5 1433.5q-8.5 22.5 4 45t35.5 28.5l419 129q23 8 44.5 -4t29.5 -35q6 -23 -5 -44t-34 -27l-420 -131q-23 -6 -44 5t-29.5 33.5zM553 1034q0 -109 80 -174q80 -63 211 -63q-6 115 -90 176t-201 61z" />
<glyph unicode="&#xf4;" horiz-adv-x="1103" d="M143 342v444q0 166 123 271q115 96 287 96q170 0 285 -96q123 -100 123 -271v-444q0 -158 -113 -256t-295 -98q-184 0 -297 98t-113 256zM230.5 1420.5q5.5 23.5 25.5 37.5l258 168q31 25 64 0l258 -168q20 -14 25 -37.5t-9 -44.5q-12 -20 -35.5 -25t-44.5 9l-227 147 q-49 -33 -226 -147q-20 -14 -43.5 -9t-35.5 25q-15 21 -9.5 44.5zM262 342q0 -109 80 -174q80 -63 211 -64q129 0 211 64q80 66 80 174v338q-178 0 -290 92t-120 244q-78 -25 -125 -83.5t-47 -146.5v-444zM553 1034q0 -109 80 -174q80 -63 211 -63q-6 115 -90 176t-201 61z " />
<glyph unicode="&#xf5;" horiz-adv-x="1103" d="M143 342v444q0 166 123 271q115 96 287 96q170 0 285 -96q123 -100 123 -271v-444q0 -158 -113 -256t-295 -98q-184 0 -297 98t-113 256zM227 1505.5q-2 24.5 15 42.5q45 55 114.5 74.5t139.5 -2.5l155 -53q74 -23 125 35q14 20 39 22t43 -14q20 -14 22.5 -39t-14.5 -43 q-45 -55 -115.5 -74.5t-138.5 2.5l-155 53q-74 25 -125 -36q-16 -18 -40 -20.5t-44 11.5q-19 17 -21 41.5zM262 342q0 -109 80 -174q80 -63 211 -64q129 0 211 64q80 66 80 174v338q-178 0 -290 92t-120 244q-78 -25 -125 -83.5t-47 -146.5v-444zM553 1034q0 -109 80 -174 q80 -63 211 -63q-6 115 -90 176t-201 61z" />
<glyph unicode="&#xf6;" horiz-adv-x="1103" d="M143 342v444q0 166 123 271q115 96 287 96q170 0 285 -96q123 -100 123 -271v-444q0 -158 -113 -256t-295 -98q-184 0 -297 98t-113 256zM262 342q0 -109 80 -174q80 -63 211 -64q129 0 211 64q80 66 80 174v338q-178 0 -290 92t-120 244q-78 -25 -125 -83.5t-47 -146.5 v-444zM291 1466v113q0 25 17.5 42t41.5 17q23 0 40.5 -17t17.5 -42v-113q0 -25 -17.5 -42t-40.5 -17q-25 0 -42 17t-17 42zM553 1034q0 -109 80 -174q80 -63 211 -63q-6 115 -90 176t-201 61zM657 1464v115q0 23 17.5 40t42.5 17q23 0 40 -17t17 -40v-115q0 -25 -17.5 -42 t-39.5 -17q-25 0 -42.5 17t-17.5 42z" />
<glyph unicode="&#xf7;" horiz-adv-x="1159" d="M113 577.5q0 24.5 17 42t42 17.5h815q25 0 42.5 -17.5t17.5 -42t-17.5 -42t-42.5 -17.5h-815q-25 0 -42 17.5t-17 42zM512 133v115q0 23 17.5 40t41.5 17q23 0 40.5 -17.5t17.5 -39.5v-115q0 -25 -17.5 -42t-40.5 -17q-25 0 -42 17t-17 42zM512 864v113q0 25 17.5 42 t41.5 17q23 0 40.5 -17.5t17.5 -41.5v-113q0 -25 -17.5 -42t-40.5 -17q-25 0 -42 17t-17 42z" />
<glyph unicode="&#xf8;" horiz-adv-x="1140" d="M132 -61.5q-5 24.5 9 47.5l88 143q-70 88 -69 213v444q0 166 123 271q115 96 286 96q143 0 252 -74l88 142q37 47 82 18q23 -12 29 -37.5t-8 -46.5l-101 -160q66 -90 66 -209v-444q0 -158 -112.5 -256t-295.5 -98q-145 0 -245 59l-80 -127q-14 -23 -38 -28t-46 10 q-23 12 -28 36.5zM279 342q0 -109 79 -174q80 -63 211 -64q129 0 211 64q80 66 80 174v338q-178 0 -289.5 92t-119.5 244q-78 -25 -125 -83.5t-47 -146.5v-444zM569 1034q0 -109 80 -174q80 -63 211 -63q-6 115 -90 176t-201 61z" />
<glyph unicode="&#xf9;" horiz-adv-x="1124" d="M154 344v750q0 25 17 42t42 17t42 -17.5t17 -41.5v-750q0 -113 80 -174q82 -66 211 -66q125 0 211 66q80 61 80 174v750q0 25 17.5 42t39.5 17q25 0 42.5 -17.5t17.5 -41.5v-750q0 -160 -113 -258t-295 -98q-184 0 -296.5 98t-112.5 258zM297 1601.5q8 22.5 29.5 34 t44.5 4.5l420 -131q23 -6 34 -27.5t4 -43.5q-8 -23 -29.5 -35t-43.5 -4l-420 129q-23 6 -35 28.5t-4 45z" />
<glyph unicode="&#xfa;" horiz-adv-x="1124" d="M154 344v750q0 25 17 42t42 17t42 -17.5t17 -41.5v-750q0 -113 80 -174q82 -66 211 -66q125 0 211 66q80 61 80 174v750q0 25 17.5 42t39.5 17q25 0 42.5 -17.5t17.5 -41.5v-750q0 -160 -113 -258t-295 -98q-184 0 -296.5 98t-112.5 258zM295 1433.5q-8 22.5 4 45 t35 28.5l420 129q23 8 44 -4t29 -35q6 -23 -5 -44t-34 -27l-419 -131q-23 -6 -44.5 5t-29.5 33.5z" />
<glyph unicode="&#xfb;" horiz-adv-x="1124" d="M154 344v750q0 25 17 42t42 17t42 -17.5t17 -41.5v-750q0 -113 80 -174q82 -66 211 -66q125 0 211 66q80 61 80 174v750q0 25 17.5 42t39.5 17q25 0 42.5 -17.5t17.5 -41.5v-750q0 -160 -113 -258t-295 -98q-184 0 -296.5 98t-112.5 258zM249 1420.5q5 23.5 25 37.5 l258 168q33 25 64 0l258 -168q20 -14 25.5 -37.5t-9.5 -44.5q-12 -20 -35.5 -25t-43.5 9l-228 147q-49 -33 -225 -147q-20 -14 -44 -9t-36 25q-14 21 -9 44.5z" />
<glyph unicode="&#xfc;" horiz-adv-x="1128" d="M154 344v750q0 25 17 42t42 17t42 -17.5t17 -41.5v-750q0 -113 80 -174q82 -66 211 -66q125 0 211 66q80 61 80 174v750q0 25 17.5 42t39.5 17q25 0 42.5 -17.5t17.5 -41.5v-750q0 -160 -113 -258t-295 -98q-184 0 -296.5 98t-112.5 258zM324 1466v113q0 25 17 42t42 17 q23 0 40 -17t17 -42v-113q0 -25 -17 -42t-40 -17q-25 0 -42 17t-17 42zM690 1464v115q0 23 17.5 40t42.5 17q23 0 40 -17t17 -40v-115q0 -25 -17.5 -42t-39.5 -17q-25 0 -42.5 17t-17.5 42z" />
<glyph unicode="&#xfd;" horiz-adv-x="1132" d="M143 344v750q0 25 17.5 42t42 17t41 -17.5t16.5 -41.5v-750q0 -113 80 -174q82 -66 211 -66t211 66q80 61 80 174v750q0 25 17.5 42t39.5 17q25 0 42 -17.5t17 -41.5v-1235q0 -158 -112.5 -256.5t-294.5 -98.5q-164 0 -273.5 80t-130.5 215q-4 23 10.5 43.5t39.5 22.5 q25 4 44 -9.5t23 -37.5q16 -100 99 -148.5t188 -48.5q131 0 211 64q80 61 80 174v223q-115 -94 -291 -94q-182 0 -295 98t-113 258zM284.5 1441.5q-8.5 22.5 4 45t35.5 29.5l419 129q23 8 44.5 -4.5t29.5 -34.5q6 -23 -5 -44.5t-34 -27.5l-420 -131q-23 -6 -44 5t-29.5 33.5 z" />
<glyph unicode="&#xff;" horiz-adv-x="1132" d="M143 344v750q0 25 17.5 42t42 17t41 -17.5t16.5 -41.5v-750q0 -113 80 -174q82 -66 211 -66t211 66q80 61 80 174v750q0 25 17.5 42t39.5 17q25 0 42 -17.5t17 -41.5v-1235q0 -158 -112.5 -256.5t-294.5 -98.5q-164 0 -273.5 80t-130.5 215q-4 23 10.5 43.5t39.5 22.5 q25 4 44 -9.5t23 -37.5q16 -100 99 -148.5t188 -48.5q131 0 211 64q80 61 80 174v223q-115 -94 -291 -94q-182 0 -295 98t-113 258zM309 1477v112q0 25 17.5 42.5t42.5 17.5q23 0 40 -17.5t17 -42.5v-112q0 -25 -17.5 -42.5t-39.5 -17.5q-25 0 -42.5 17.5t-17.5 42.5z M676 1477v114q0 23 17.5 40.5t41.5 17.5q23 0 40.5 -17.5t17.5 -40.5v-114q0 -25 -17.5 -42.5t-40.5 -17.5q-25 0 -42 17.5t-17 42.5z" />
<glyph unicode="&#x152;" horiz-adv-x="1935" d="M154 393v850q0 182 129 294t340 112q221 0 350 -123v53q0 25 17.5 42t41.5 17h725q25 0 42.5 -17t17.5 -42t-17.5 -41t-42.5 -16h-665v-582h612q25 0 42 -17.5t17 -42t-17 -41t-42 -16.5h-612v-704h682q25 0 42 -17.5t17 -42t-17.5 -42t-41.5 -17.5h-742q-25 0 -42 17.5 t-17 41.5v64q-141 -135 -350 -135q-211 0 -340 111.5t-129 293.5zM270 393q0 -131 99 -211q100 -78 253.5 -78t254.5 78q96 78 96 211v731q-207 2 -335 109.5t-132 284.5q-84 -20 -137 -64q-96 -74 -97 -211zM623 1532q0 -135 98 -213q94 -76 252 -76q0 137 -96 211 q-100 78 -254 78z" />
<glyph unicode="&#x153;" horiz-adv-x="1787" d="M143 340v448q0 166 123 271q113 94 285 94q170 0 283 -94q35 -27 65 -72q25 39 64 72q113 94 284.5 94t282.5 -94q123 -104 123 -271v-153q0 -47 -47 -57l-650 -123v-115q0 -111 80 -172q80 -63 211 -64q104 0 187.5 48.5t99.5 146.5q2 25 22.5 39t42.5 10 q25 -4 39.5 -23.5t10.5 -43.5q-20 -133 -129 -213t-273 -80q-240 0 -348 157q-113 -158 -348 -157q-182 0 -295 97t-113 255zM260 340q0 -111 80 -172q80 -63 211 -64q129 0 209 64q80 61 80 172v448q0 121 -85 184.5t-204 63.5q-121 0 -206 -63.5t-85 -184.5v-448zM956 573 q59 12 305 58.5t275 52.5v104q0 119 -85 183.5t-204 64.5t-205 -63.5t-86 -184.5v-215z" />
<glyph unicode="&#x178;" horiz-adv-x="1183" d="M164 856v733q0 25 17.5 42.5t42 17.5t41 -17.5t16.5 -42.5v-733q0 -113 79 -174q80 -63 211 -63.5t211 63.5q80 61 80 174v733q0 25 17.5 42.5t40.5 17.5q25 0 42 -17.5t17 -42.5v-1247q0 -158 -112.5 -256t-295.5 -98q-162 0 -272.5 79.5t-130.5 213.5q-4 25 10.5 45 t38.5 22q25 4 44.5 -10t23.5 -39q16 -98 99 -146.5t187 -48.5q131 0 211 64q80 66 80 174v252q-115 -94 -291 -94q-182 0 -294.5 98t-112.5 258zM330 1812v113q0 25 17.5 42.5t41.5 17.5q23 0 40 -17.5t17 -42.5v-113q0 -25 -17 -42t-40 -17q-25 0 -42 17t-17 42zM696 1810 v115q0 23 17.5 40t42.5 17q23 0 40 -17t17 -40v-115q0 -25 -17.5 -42t-39.5 -17q-25 0 -42.5 17t-17.5 42z" />
<glyph unicode="&#x2c6;" horiz-adv-x="796" d="M83 1432.5q5 23.5 26 37.5l258 168q31 25 63 0l258 -168q20 -14 25.5 -37.5t-8.5 -43.5q-12 -20 -36 -25.5t-44 8.5l-228 148q-49 -33 -225 -148q-20 -14 -44 -9t-36 26q-14 20 -9 43.5z" />
<glyph unicode="&#x2dc;" horiz-adv-x="819" d="M84 1521.5q-2 24.5 14 43.5q45 55 115 74.5t139 -3.5l156 -53q74 -23 125 35q14 20 38.5 22t43.5 -14q20 -14 22 -38.5t-14 -43.5q-45 -55 -115.5 -74.5t-138.5 3.5l-156 53q-74 25 -125 -37q-16 -18 -39.5 -20.5t-44.5 12.5q-18 16 -20 40.5z" />
<glyph unicode="&#x2000;" horiz-adv-x="1054" />
<glyph unicode="&#x2001;" horiz-adv-x="2109" />
<glyph unicode="&#x2002;" horiz-adv-x="1054" />
<glyph unicode="&#x2003;" horiz-adv-x="2109" />
<glyph unicode="&#x2004;" horiz-adv-x="702" />
<glyph unicode="&#x2005;" horiz-adv-x="526" />
<glyph unicode="&#x2006;" horiz-adv-x="350" />
<glyph unicode="&#x2007;" horiz-adv-x="350" />
<glyph unicode="&#x2008;" horiz-adv-x="262" />
<glyph unicode="&#x2009;" horiz-adv-x="421" />
<glyph unicode="&#x200a;" horiz-adv-x="116" />
<glyph unicode="&#x2010;" horiz-adv-x="684" d="M113 819.5q0 24.5 17 42t42 17.5h340q25 0 42 -17.5t17 -42t-17 -42t-42 -17.5h-340q-25 0 -42 17.5t-17 42z" />
<glyph unicode="&#x2011;" horiz-adv-x="684" d="M113 819.5q0 24.5 17 42t42 17.5h340q25 0 42 -17.5t17 -42t-17 -42t-42 -17.5h-340q-25 0 -42 17.5t-17 42z" />
<glyph unicode="&#x2012;" horiz-adv-x="684" d="M113 819.5q0 24.5 17 42t42 17.5h340q25 0 42 -17.5t17 -42t-17 -42t-42 -17.5h-340q-25 0 -42 17.5t-17 42z" />
<glyph unicode="&#x2013;" horiz-adv-x="1079" d="M113 819.5q0 24.5 17 42t42 17.5h735q25 0 42.5 -17.5t17.5 -42t-17.5 -42t-42.5 -17.5h-735q-25 0 -42 17.5t-17 42z" />
<glyph unicode="&#x2014;" horiz-adv-x="1302" d="M61 819.5q0 24.5 17.5 42t42.5 17.5h1061q25 0 42 -17.5t17 -42t-17.5 -42t-41.5 -17.5h-1061q-25 0 -42.5 17.5t-17.5 42z" />
<glyph unicode="&#x2018;" horiz-adv-x="350" d="M72 1407q0 27 12 51l66 154q10 23 32.5 31t42.5 -1q23 -8 33 -31.5t0 -45.5l-31 -70q51 -31 52 -88q0 -43 -31 -73.5t-74 -30.5t-72.5 30.5t-29.5 73.5z" />
<glyph unicode="&#x2019;" horiz-adv-x="350" d="M72 1544q0 43 30.5 74t73.5 31t73 -31t30 -74q0 -27 -13 -51l-65 -154q-10 -23 -33 -31t-43 1q-23 8 -33 31.5t0 45.5l31 70q-51 31 -51 88z" />
<glyph unicode="&#x201a;" horiz-adv-x="350" d="M72 129q0 43 30.5 73.5t73.5 30.5t73 -30.5t30 -73.5q0 -27 -13 -51l-65 -154q-10 -23 -33 -31t-43 1q-23 8 -33 31.5t0 45.5l31 70q-51 31 -51 88z" />
<glyph unicode="&#x201c;" horiz-adv-x="616" d="M72 1407q0 27 12 51l66 154q10 23 32.5 31t42.5 -1q23 -8 33 -31.5t0 -45.5l-31 -70q51 -31 52 -88q0 -43 -31 -73.5t-74 -30.5t-72.5 30.5t-29.5 73.5zM338 1407q0 27 12 51l66 154q10 23 32.5 31t43.5 -1q23 -8 33 -31.5t-1 -45.5l-30 -70q51 -31 51 -88 q0 -43 -31 -73.5t-74 -30.5t-72.5 30.5t-29.5 73.5z" />
<glyph unicode="&#x201d;" horiz-adv-x="616" d="M72 1544q0 43 30.5 74t73.5 31t73 -31t30 -74q0 -27 -13 -51l-65 -154q-10 -23 -33 -31t-43 1q-23 8 -33 31.5t0 45.5l31 70q-51 31 -51 88zM338 1544q0 43 30.5 74t73.5 31t73 -31t30 -74q0 -27 -13 -51l-65 -154q-10 -23 -32.5 -31t-43.5 1q-23 8 -33 31.5t0 45.5 l31 70q-51 31 -51 88z" />
<glyph unicode="&#x201e;" horiz-adv-x="595" d="M72 129q0 43 30.5 73.5t73.5 30.5t73 -30.5t30 -73.5q0 -27 -13 -51l-65 -154q-10 -23 -33 -31t-43 1q-23 8 -33 31.5t0 45.5l31 70q-51 31 -51 88zM338 129q0 43 30.5 73.5t73.5 30.5t73 -30.5t30 -73.5q0 -27 -13 -51l-65 -154q-10 -23 -32.5 -31t-43.5 1 q-23 8 -33 31.5t0 45.5l31 70q-51 31 -51 88z" />
<glyph unicode="&#x2022;" horiz-adv-x="794" d="M154 897q0 100 71.5 172t172 72t172 -72t71.5 -172t-71.5 -172t-172 -72t-172 72t-71.5 172z" />
<glyph unicode="&#x2026;" horiz-adv-x="905" d="M113 47v115q0 23 17 40t42 17q23 0 40 -17.5t17 -39.5v-115q0 -25 -17 -42t-40 -17q-25 0 -42 17t-17 42zM352 47v115q0 23 17.5 40t42.5 17q23 0 40 -17.5t17 -39.5v-115q0 -25 -17.5 -42t-39.5 -17q-25 0 -42.5 17t-17.5 42zM594 47v115q0 23 17.5 40t41.5 17 q23 0 40.5 -17.5t17.5 -39.5v-115q0 -25 -17.5 -42t-40.5 -17q-25 0 -42 17t-17 42z" />
<glyph unicode="&#x202f;" horiz-adv-x="421" />
<glyph unicode="&#x2039;" horiz-adv-x="763" d="M125 696.5q0 24.5 16 40.5l400 400q16 16 40.5 16t41.5 -16q41 -43 0 -84l-357 -357l357 -356q41 -41 0 -84q-16 -16 -41 -16t-41 16l-400 399q-16 17 -16 41.5z" />
<glyph unicode="&#x203a;" horiz-adv-x="763" d="M123 298q0 24 18 42l357 356l-357 357q-18 18 -18 41.5t18 42.5q16 16 41 16t41 -16l400 -400q16 -16 16 -40.5t-16 -41.5l-400 -399q-16 -16 -40.5 -16t-41.5 16q-18 18 -18 42z" />
<glyph unicode="&#x205f;" horiz-adv-x="526" />
<glyph unicode="&#x20ac;" horiz-adv-x="1286" d="M41 702q0 23 17.5 40.5t41.5 17.5h166v145h-166q-25 0 -42 17.5t-17 42t17.5 42t41.5 17.5h166v217q0 182 129 295t340 113t340 -113t129 -295q0 -23 -17.5 -40t-42 -17t-42 17.5t-17.5 39.5q0 135 -96 213q-98 76 -254 76q-160 0 -254 -76q-98 -78 -98 -213v-217h496 q25 0 41 -17.5t16 -42t-16.5 -42t-40.5 -17.5h-496v-145h496q25 0 41 -17.5t16 -40.5q0 -25 -16.5 -42t-40.5 -17h-496v-248q0 -137 98 -213q94 -76 254 -76q156 0 254 76q96 78 96 213q0 23 17.5 40.5t42 17.5t42 -17.5t17.5 -40.5q0 -182 -129 -294.5t-340 -112.5 t-340 112.5t-129 294.5v248h-166q-25 0 -42 17t-17 42z" />
<glyph unicode="&#x2122;" horiz-adv-x="1273" d="M82 1589q0 18 14.5 32.5t32.5 14.5h363q20 0 33.5 -14t13.5 -33q0 -20 -13.5 -33.5t-33.5 -13.5h-134v-559q0 -20 -13 -33.5t-34 -13.5q-18 0 -32.5 13.5t-14.5 33.5v559h-135q-18 0 -32.5 13.5t-14.5 33.5zM637 983v608q0 39 35 45q35 10 53 -22l190 -338q53 98 187 338 q20 33 53 22q37 -8 37 -45v-608q0 -18 -13.5 -32.5t-33.5 -14.5q-18 0 -32.5 14.5t-14.5 32.5v428q-66 -121 -142 -256q-12 -23 -40.5 -22.5t-41.5 22.5l-143 256v-428q0 -20 -13 -33.5t-33.5 -13.5t-34 13.5t-13.5 33.5z" />
<glyph unicode="&#xe000;" horiz-adv-x="1155" d="M0 1155h1155v-1155h-1155v1155z" />
<glyph unicode="&#xf001;" horiz-adv-x="1159" d="M61 1083.5q0 24.5 17.5 41t42.5 16.5h155v141q0 170 123 270q115 96 285 97q25 0 42 -17.5t17 -42t-17 -41t-42 -16.5q-119 0 -205 -64.5t-86 -185.5v-141h525q25 0 41 -17.5t16 -42.5v-1034q0 -25 -16.5 -42t-41 -17t-42 17.5t-17.5 41.5v977h-465v-977q0 -25 -16.5 -42 t-41 -17t-42 17.5t-17.5 41.5v977h-155q-25 0 -42.5 17.5t-17.5 42zM858 1477v114q0 25 16.5 42.5t41 17.5t42 -17.5t17.5 -42.5v-114q0 -25 -17.5 -42.5t-42 -17.5t-41 17.5t-16.5 42.5z" />
<glyph unicode="&#xfb01;" horiz-adv-x="1159" d="M61 1083.5q0 24.5 17.5 41t42.5 16.5h155v141q0 170 123 270q115 96 285 97q25 0 42 -17.5t17 -42t-17 -41t-42 -16.5q-119 0 -205 -64.5t-86 -185.5v-141h525q25 0 41 -17.5t16 -42.5v-1034q0 -25 -16.5 -42t-41 -17t-42 17.5t-17.5 41.5v977h-465v-977q0 -25 -16.5 -42 t-41 -17t-42 17.5t-17.5 41.5v977h-155q-25 0 -42.5 17.5t-17.5 42zM858 1477v114q0 25 16.5 42.5t41 17.5t42 -17.5t17.5 -42.5v-114q0 -25 -17.5 -42.5t-42 -17.5t-41 17.5t-16.5 42.5z" />
<glyph unicode="&#xf002;" horiz-adv-x="1398" d="M61 1083.5q0 24.5 17.5 41t42.5 16.5h155v141q0 170 123 270q115 96 285 97q25 0 42 -17.5t17 -42t-17 -41t-42 -16.5q-119 0 -205 -64.5t-86 -185.5v-141h518v448q0 25 17.5 42.5t42 17.5t41 -17.5t16.5 -42.5v-1247q0 -106 80 -174q82 -63 211 -64q25 0 42 -16 t17 -40.5t-17.5 -42t-41.5 -17.5q-182 0 -295 98t-113 256v682h-518v-977q0 -25 -16.5 -42t-41 -17t-42 17.5t-17.5 41.5v977h-155q-25 0 -42.5 17.5t-17.5 42z" />
<glyph unicode="&#xfb02;" horiz-adv-x="1398" d="M61 1083.5q0 24.5 17.5 41t42.5 16.5h155v141q0 170 123 270q115 96 285 97q25 0 42 -17.5t17 -42t-17 -41t-42 -16.5q-119 0 -205 -64.5t-86 -185.5v-141h518v448q0 25 17.5 42.5t42 17.5t41 -17.5t16.5 -42.5v-1247q0 -106 80 -174q82 -63 211 -64q25 0 42 -16 t17 -40.5t-17.5 -42t-41.5 -17.5q-182 0 -295 98t-113 256v682h-518v-977q0 -25 -16.5 -42t-41 -17t-42 17.5t-17.5 41.5v977h-155q-25 0 -42.5 17.5t-17.5 42z" />
<glyph unicode="&#xfb03;" horiz-adv-x="2054" d="M1753 47v1047q0 25 17.5 42t42 17t41 -17.5t16.5 -41.5v-1047q0 -25 -16.5 -42t-41 -17t-42 17t-17.5 42zM1753 1475v114q0 25 17.5 42.5t42 17.5t41 -17.5t16.5 -42.5v-114q0 -25 -16.5 -42.5t-41 -17.5t-42 17.5t-17.5 42.5zM845 1083.5q0 24.5 17.5 41t42.5 16.5h155 v141q0 170 123 270q115 96 285 97q25 0 42 -17.5t17 -42t-17 -41t-42 -16.5q-119 0 -205 -64.5t-86 -185.5v-141h238q25 0 42 -16.5t17 -41t-17.5 -42t-41.5 -17.5h-238v-977q0 -25 -16.5 -42t-41 -17t-42 17.5t-17.5 41.5v977h-155q-25 0 -42.5 17.5t-17.5 42zM61 1083.5 q0 24.5 17.5 41t42.5 16.5h155v141q0 170 123 270q115 96 285 97q25 0 42 -17.5t17 -42t-17 -41t-42 -16.5q-119 0 -205 -64.5t-86 -185.5v-141h238q25 0 42 -16.5t17 -41t-17.5 -42t-41.5 -17.5h-238v-977q0 -25 -16.5 -42t-41 -17t-42 17.5t-17.5 41.5v977h-155 q-25 0 -42.5 17.5t-17.5 42z" />
<glyph unicode="&#xfb04;" horiz-adv-x="2199" d="M1712 342v1247q0 25 17.5 42.5t42 17.5t41 -17.5t16.5 -42.5v-1247q0 -106 80 -174q82 -63 211 -64q25 0 42 -16t17 -40.5t-17.5 -42t-41.5 -17.5q-182 0 -295 98t-113 256zM845 1083.5q0 24.5 17.5 41t42.5 16.5h155v141q0 170 123 270q115 96 285 97q25 0 42 -17.5 t17 -42t-17 -41t-42 -16.5q-119 0 -205 -64.5t-86 -185.5v-141h238q25 0 42 -16.5t17 -41t-17.5 -42t-41.5 -17.5h-238v-977q0 -25 -16.5 -42t-41 -17t-42 17.5t-17.5 41.5v977h-155q-25 0 -42.5 17.5t-17.5 42zM61 1083.5q0 24.5 17.5 41t42.5 16.5h155v141q0 170 123 270 q115 96 285 97q25 0 42 -17.5t17 -42t-17 -41t-42 -16.5q-119 0 -205 -64.5t-86 -185.5v-141h238q25 0 42 -16.5t17 -41t-17.5 -42t-41.5 -17.5h-238v-977q0 -25 -16.5 -42t-41 -17t-42 17.5t-17.5 41.5v977h-155q-25 0 -42.5 17.5t-17.5 42z" />
</font>
</defs>
</svg>
